<?xml version="1.0" encoding="utf-8"?>
<svg version="1.1" xmlns:xlink="http://www.w3.org/1999/xlink" width="216px" height="115px" xmlns="http://www.w3.org/2000/svg">
  <g transform="matrix(1 0 0 1 -505 0 )">
    <path d="M 505 0  L 721 0  L 721 115  L 505 115  L 505 0  " fill-rule="nonzero" fill="#cccccc" stroke="none" />
    <path d="M 513 8  L 713 8  L 713 107  L 513 107  L 513 8  " fill-rule="nonzero" fill="#ffffff" stroke="none" />
    <path d="M 625.945 34.5  C 621.115 34.5  617.32 30.705  617.32 25.875  C 617.32 21.045  621.115 17.25  625.945 17.25  C 630.775 17.25  634.57 21.045  634.57 25.875  C 634.57 30.705  630.775 34.5  625.945 34.5  " fill-rule="nonzero" fill="#cccccc" stroke="none" />
    <path d="M 516 104  L 516 52.85  L 564.5 29.6  L 632.4 74.2916666666667  L 671.2 43.55  L 710 74.2916666666667  L 710 104  L 516 104  " fill-rule="nonzero" fill="#169bd5" stroke="none" />
  </g>
</svg>