<?xml version="1.0" encoding="utf-8"?>
<svg version="1.1" xmlns:xlink="http://www.w3.org/1999/xlink" width="12px" height="12px" viewBox="395 201.5  12 12" xmlns="http://www.w3.org/2000/svg">
  <path d="M 401 201.5  C 404.36 201.5  407 204.14  407 207.5  C 407 210.86  404.36 213.5  401 213.5  C 397.64 213.5  395 210.86  395 207.5  C 395 204.14  397.64 201.5  401 201.5  Z " fill-rule="nonzero" fill="#ffffff" stroke="none" />
  <path d="M 401 202  C 404.08 202  406.5 204.42  406.5 207.5  C 406.5 210.58  404.08 213  401 213  C 397.92 213  395.5 210.58  395.5 207.5  C 395.5 204.42  397.92 202  401 202  Z " stroke-width="1" stroke="#02a7f0" fill="none" />
  <path d="M 401 210.5  C 399.32 210.5  398 209.18  398 207.5  C 398 205.82  399.32 204.5  401 204.5  C 402.68 204.5  404 205.82  404 207.5  C 404 209.18  402.68 210.5  401 210.5  " fill-rule="nonzero" fill="#02a7f0" stroke="none" />
</svg>