<?xml version="1.0" encoding="utf-8"?>
<svg version="1.1" xmlns:xlink="http://www.w3.org/1999/xlink" width="12px" height="12px" viewBox="500 201.5  12 12" xmlns="http://www.w3.org/2000/svg">
  <path d="M 506 201.5  C 509.36 201.5  512 204.14  512 207.5  C 512 210.86  509.36 213.5  506 213.5  C 502.64 213.5  500 210.86  500 207.5  C 500 204.14  502.64 201.5  506 201.5  Z " fill-rule="nonzero" fill="#f0f0f0" stroke="none" />
  <path d="M 506 202  C 509.08 202  511.5 204.42  511.5 207.5  C 511.5 210.58  509.08 213  506 213  C 502.92 213  500.5 210.58  500.5 207.5  C 500.5 204.42  502.92 202  506 202  Z " stroke-width="1" stroke="#797979" fill="none" />
  <path d="M 506 210.5  C 504.32 210.5  503 209.18  503 207.5  C 503 205.82  504.32 204.5  506 204.5  C 507.68 204.5  509 205.82  509 207.5  C 509 209.18  507.68 210.5  506 210.5  " fill-rule="nonzero" fill="#797979" stroke="none" />
</svg>