<?xml version="1.0" encoding="utf-8"?>
<svg version="1.1" xmlns:xlink="http://www.w3.org/1999/xlink" width="21px" height="20px" xmlns="http://www.w3.org/2000/svg">
  <g transform="matrix(1 0 0 1 -1592 -391 )">
    <path d="M 0.29166666666672 10  C 0.29166666666672 15.3694444444444  4.86209500000005 19.7222222222222  10.5 19.7222222222222  C 16.1379166666666 19.7222222222222  20.7083333333333 15.3694444444444  20.7083333333333 10  C 20.7083333333333 4.63056666666665  16.1379166666666 0.277777777777771  10.5 0.277777777777771  C 4.86209500000005 0.277777777777771  0.29166666666672 4.63056666666665  0.29166666666672 10  Z M 9.62485999999996 6.11104444444447  L 9.62485999999996 4.44444444444446  L 11.3747666666666 4.44444444444446  L 11.3747666666666 6.11104444444447  L 9.62485999999996 6.11104444444447  Z M 9.77902333333329 15.5552222222223  L 9.77902333333329 7.91666666666669  L 11.2373333333333 7.91666666666669  L 11.2373333333333 15.5552222222223  L 9.77902333333329 15.5552222222223  Z " fill-rule="nonzero" fill="#e66f38" stroke="none" transform="matrix(1 0 0 1 1592 391 )" />
  </g>
</svg>