<?xml version="1.0" encoding="utf-8"?>
<svg version="1.1" xmlns:xlink="http://www.w3.org/1999/xlink" width="181px" height="42px" xmlns="http://www.w3.org/2000/svg">
  <g transform="matrix(1 0 0 1 -142 -1284 )">
    <path d="M 306.431361736274 1284.5  C 306.431361736274 1284.5  309.936393369843 1284.90666112876  309.936393369843 1284.90666112876  C 309.936393369843 1284.90666112876  322.460538512941 1305  322.460538512941 1305  C 322.460538512941 1305  309.936393369843 1325.09333887124  309.936393369843 1325.09333887124  C 309.936393369843 1325.09333887124  306.431361736274 1325.5  306.431361736274 1325.5  C 306.431361736274 1325.5  142.5 1325.5  142.5 1325.5  C 142.5 1325.5  142.5 1284.5  142.5 1284.5  C 142.5 1284.5  306.431361736274 1284.5  306.431361736274 1284.5  Z " fill-rule="nonzero" fill="#7c91ee" stroke="none" />
    <path d="M 306.431361736274 1284.5  C 306.431361736274 1284.5  309.936393369843 1284.90666112876  309.936393369843 1284.90666112876  C 309.936393369843 1284.90666112876  322.460538512941 1305  322.460538512941 1305  C 322.460538512941 1305  309.936393369843 1325.09333887124  309.936393369843 1325.09333887124  C 309.936393369843 1325.09333887124  306.431361736274 1325.5  306.431361736274 1325.5  C 306.431361736274 1325.5  142.5 1325.5  142.5 1325.5  C 142.5 1325.5  142.5 1284.5  142.5 1284.5  C 142.5 1284.5  306.431361736274 1284.5  306.431361736274 1284.5  Z " stroke-width="1" stroke="#aaaaaa" fill="none" />
  </g>
</svg>