<?xml version="1.0" encoding="utf-8"?>
<svg version="1.1" xmlns:xlink="http://www.w3.org/1999/xlink" width="169px" height="42px" xmlns="http://www.w3.org/2000/svg">
  <g transform="matrix(1 0 0 1 0 -1284 )">
    <path d="M 152.40119807656 1284.5  C 152.40119807656 1284.5  155.933957012729 1284.93898187964  155.933957012729 1284.93898187964  C 155.933957012729 1284.93898187964  168.458053520076 1305  168.458053520076 1305  C 168.458053520076 1305  155.933957012729 1325.06101812036  155.933957012729 1325.06101812036  C 155.933957012729 1325.06101812036  152.40119807656 1325.5  152.40119807656 1325.5  C 152.40119807656 1325.5  0.500000000000003 1325.5  0.500000000000003 1325.5  C 0.500000000000003 1325.5  0.5 1284.5  0.5 1284.5  C 0.5 1284.5  152.40119807656 1284.5  152.40119807656 1284.5  Z " fill-rule="nonzero" fill="#7c91ee" stroke="none" />
    <path d="M 152.40119807656 1284.5  C 152.40119807656 1284.5  155.933957012729 1284.93898187964  155.933957012729 1284.93898187964  C 155.933957012729 1284.93898187964  168.458053520076 1305  168.458053520076 1305  C 168.458053520076 1305  155.933957012729 1325.06101812036  155.933957012729 1325.06101812036  C 155.933957012729 1325.06101812036  152.40119807656 1325.5  152.40119807656 1325.5  C 152.40119807656 1325.5  0.500000000000003 1325.5  0.500000000000003 1325.5  C 0.500000000000003 1325.5  0.5 1284.5  0.5 1284.5  C 0.5 1284.5  152.40119807656 1284.5  152.40119807656 1284.5  Z " stroke-width="1" stroke="#aaaaaa" fill="none" />
  </g>
</svg>