<?xml version="1.0" encoding="utf-8"?>
<svg version="1.1" xmlns:xlink="http://www.w3.org/1999/xlink" width="189px" height="42px" xmlns="http://www.w3.org/2000/svg">
  <g transform="matrix(1 0 0 1 -625 -2295 )">
    <path d="M 797.45147084275 2295.5  C 797.45147084275 2295.5  800.93785664962 2295.88737620076  800.93785664962 2295.88737620076  C 800.93785664962 2295.88737620076  813.462041847847 2316  813.462041847847 2316  C 813.462041847847 2316  800.93785664962 2336.11262379924  800.93785664962 2336.11262379924  C 800.93785664962 2336.11262379924  797.45147084275 2336.5  797.45147084275 2336.5  C 797.45147084275 2336.5  625.5 2336.5  625.5 2336.5  C 625.5 2336.5  625.5 2295.5  625.5 2295.5  C 625.5 2295.5  797.45147084275 2295.5  797.45147084275 2295.5  Z " fill-rule="nonzero" fill="#7c91ee" stroke="none" />
    <path d="M 797.45147084275 2295.5  C 797.45147084275 2295.5  800.93785664962 2295.88737620076  800.93785664962 2295.88737620076  C 800.93785664962 2295.88737620076  813.462041847847 2316  813.462041847847 2316  C 813.462041847847 2316  800.93785664962 2336.11262379924  800.93785664962 2336.11262379924  C 800.93785664962 2336.11262379924  797.45147084275 2336.5  797.45147084275 2336.5  C 797.45147084275 2336.5  625.5 2336.5  625.5 2336.5  C 625.5 2336.5  625.5 2295.5  625.5 2295.5  C 625.5 2295.5  797.45147084275 2295.5  797.45147084275 2295.5  Z " stroke-width="1" stroke="#aaaaaa" fill="none" />
  </g>
</svg>