<?xml version="1.0" encoding="utf-8"?>
<svg version="1.1" xmlns:xlink="http://www.w3.org/1999/xlink" width="198px" height="42px" xmlns="http://www.w3.org/2000/svg">
  <g transform="matrix(1 0 0 1 -786 -2295 )">
    <path d="M 967.474093587536 2295.5  C 967.474093587536 2295.5  970.939369704753 2295.86752928516  970.939369704753 2295.86752928516  C 970.939369704753 2295.86752928516  983.463604800407 2316  983.463604800407 2316  C 983.463604800407 2316  970.939369704753 2336.13247071484  970.939369704753 2336.13247071484  C 970.939369704753 2336.13247071484  967.474093587536 2336.5  967.474093587536 2336.5  C 967.474093587536 2336.5  786.5 2336.5  786.5 2336.5  C 786.5 2336.5  786.5 2295.5  786.5 2295.5  C 786.5 2295.5  967.474093587536 2295.5  967.474093587536 2295.5  Z " fill-rule="nonzero" fill="#7c91ee" stroke="none" />
    <path d="M 967.474093587536 2295.5  C 967.474093587536 2295.5  970.939369704753 2295.86752928516  970.939369704753 2295.86752928516  C 970.939369704753 2295.86752928516  983.463604800407 2316  983.463604800407 2316  C 983.463604800407 2316  970.939369704753 2336.13247071484  970.939369704753 2336.13247071484  C 970.939369704753 2336.13247071484  967.474093587536 2336.5  967.474093587536 2336.5  C 967.474093587536 2336.5  786.5 2336.5  786.5 2336.5  C 786.5 2336.5  786.5 2295.5  786.5 2295.5  C 786.5 2295.5  967.474093587536 2295.5  967.474093587536 2295.5  Z " stroke-width="1" stroke="#aaaaaa" fill="none" />
  </g>
</svg>