<?xml version="1.0" encoding="utf-8"?>
<svg version="1.1" xmlns:xlink="http://www.w3.org/1999/xlink" width="177px" height="42px" xmlns="http://www.w3.org/2000/svg">
  <g transform="matrix(1 0 0 1 -138 -3289 )">
    <path d="M 298.421307183036 3289.5  C 298.421307183036 3289.5  301.935615430599 3289.91695182598  301.935615430599 3289.91695182598  C 301.935615430599 3289.91695182598  314.459742582555 3310  314.459742582555 3310  C 314.459742582555 3310  301.935615430599 3330.08304817402  301.935615430599 3330.08304817402  C 301.935615430599 3330.08304817402  298.421307183036 3330.5  298.421307183036 3330.5  C 298.421307183036 3330.5  138.5 3330.5  138.5 3330.5  C 138.5 3330.5  138.5 3289.5  138.5 3289.5  C 138.5 3289.5  298.421307183036 3289.5  298.421307183036 3289.5  Z " fill-rule="nonzero" fill="#7c91ee" stroke="none" />
    <path d="M 298.421307183036 3289.5  C 298.421307183036 3289.5  301.935615430599 3289.91695182598  301.935615430599 3289.91695182598  C 301.935615430599 3289.91695182598  314.459742582555 3310  314.459742582555 3310  C 314.459742582555 3310  301.935615430599 3330.08304817402  301.935615430599 3330.08304817402  C 301.935615430599 3330.08304817402  298.421307183036 3330.5  298.421307183036 3330.5  C 298.421307183036 3330.5  138.5 3330.5  138.5 3330.5  C 138.5 3330.5  138.5 3289.5  138.5 3289.5  C 138.5 3289.5  298.421307183036 3289.5  298.421307183036 3289.5  Z " stroke-width="1" stroke="#aaaaaa" fill="none" />
  </g>
</svg>