<?xml version="1.0" encoding="utf-8"?>
<svg version="1.1" xmlns:xlink="http://www.w3.org/1999/xlink" width="193px" height="42px" xmlns="http://www.w3.org/2000/svg">
  <g transform="matrix(1 0 0 1 -766 -3289 )">
    <path d="M 942.461525395988 3289.5  C 942.461525395988 3289.5  945.938545523329 3289.87832861489  945.938545523329 3289.87832861489  C 945.938545523329 3289.87832861489  958.462752373863 3310  958.462752373863 3310  C 958.462752373863 3310  945.938545523329 3330.12167138511  945.938545523329 3330.12167138511  C 945.938545523329 3330.12167138511  942.461525395988 3330.5  942.461525395988 3330.5  C 942.461525395988 3330.5  766.5 3330.5  766.5 3330.5  C 766.5 3330.5  766.5 3289.5  766.5 3289.5  C 766.5 3289.5  942.461525395988 3289.5  942.461525395988 3289.5  Z " fill-rule="nonzero" fill="#7c91ee" stroke="none" />
    <path d="M 942.461525395988 3289.5  C 942.461525395988 3289.5  945.938545523329 3289.87832861489  945.938545523329 3289.87832861489  C 945.938545523329 3289.87832861489  958.462752373863 3310  958.462752373863 3310  C 958.462752373863 3310  945.938545523329 3330.12167138511  945.938545523329 3330.12167138511  C 945.938545523329 3330.12167138511  942.461525395988 3330.5  942.461525395988 3330.5  C 942.461525395988 3330.5  766.5 3330.5  766.5 3330.5  C 766.5 3330.5  766.5 3289.5  766.5 3289.5  C 766.5 3289.5  942.461525395988 3289.5  942.461525395988 3289.5  Z " stroke-width="1" stroke="#aaaaaa" fill="none" />
  </g>
</svg>