<?xml version="1.0" encoding="utf-8"?>
<svg version="1.1" xmlns:xlink="http://www.w3.org/1999/xlink" width="184px" height="42px" xmlns="http://www.w3.org/2000/svg">
  <g transform="matrix(1 0 0 1 -609 -3289 )">
    <path d="M 776.438902651203 3289.5  C 776.438902651203 3289.5  779.936956064137 3289.89923435691  779.936956064137 3289.89923435691  C 779.936956064137 3289.89923435691  792.461115652127 3310  792.461115652127 3310  C 792.461115652127 3310  779.936956064137 3330.10076564309  779.936956064137 3330.10076564309  C 779.936956064137 3330.10076564309  776.438902651203 3330.5  776.438902651203 3330.5  C 776.438902651203 3330.5  609.5 3330.5  609.5 3330.5  C 609.5 3330.5  609.5 3289.5  609.5 3289.5  C 609.5 3289.5  776.438902651203 3289.5  776.438902651203 3289.5  Z " fill-rule="nonzero" fill="#7c91ee" stroke="none" />
    <path d="M 776.438902651203 3289.5  C 776.438902651203 3289.5  779.936956064137 3289.89923435691  779.936956064137 3289.89923435691  C 779.936956064137 3289.89923435691  792.461115652127 3310  792.461115652127 3310  C 792.461115652127 3310  779.936956064137 3330.10076564309  779.936956064137 3330.10076564309  C 779.936956064137 3330.10076564309  776.438902651203 3330.5  776.438902651203 3330.5  C 776.438902651203 3330.5  609.5 3330.5  609.5 3330.5  C 609.5 3330.5  609.5 3289.5  609.5 3289.5  C 609.5 3289.5  776.438902651203 3289.5  776.438902651203 3289.5  Z " stroke-width="1" stroke="#aaaaaa" fill="none" />
  </g>
</svg>