<?xml version="1.0" encoding="utf-8"?>
<svg version="1.1" xmlns:xlink="http://www.w3.org/1999/xlink" width="164px" height="42px" xmlns="http://www.w3.org/2000/svg">
  <g transform="matrix(1 0 0 1 0 -3289 )">
    <path d="M 147.388629885012 3289.5  C 147.388629885012 3289.5  150.932844589586 3289.95383237071  150.932844589586 3289.95383237071  C 150.932844589586 3289.95383237071  163.456926460839 3310  163.456926460839 3310  C 163.456926460839 3310  150.932844589586 3330.04616762929  150.932844589586 3330.04616762929  C 150.932844589586 3330.04616762929  147.388629885012 3330.5  147.388629885012 3330.5  C 147.388629885012 3330.5  0.5 3330.5  0.5 3330.5  C 0.5 3330.5  0.5 3289.5  0.5 3289.5  C 0.5 3289.5  147.388629885012 3289.5  147.388629885012 3289.5  Z " fill-rule="nonzero" fill="#7c91ee" stroke="none" />
    <path d="M 147.388629885012 3289.5  C 147.388629885012 3289.5  150.932844589586 3289.95383237071  150.932844589586 3289.95383237071  C 150.932844589586 3289.95383237071  163.456926460839 3310  163.456926460839 3310  C 163.456926460839 3310  150.932844589586 3330.04616762929  150.932844589586 3330.04616762929  C 150.932844589586 3330.04616762929  147.388629885012 3330.5  147.388629885012 3330.5  C 147.388629885012 3330.5  0.5 3330.5  0.5 3330.5  C 0.5 3330.5  0.5 3289.5  0.5 3289.5  C 0.5 3289.5  147.388629885012 3289.5  147.388629885012 3289.5  Z " stroke-width="1" stroke="#aaaaaa" fill="none" />
  </g>
</svg>