<?xml version="1.0" encoding="utf-8"?>
<svg version="1.1" xmlns:xlink="http://www.w3.org/1999/xlink" width="329px" height="710px" xmlns="http://www.w3.org/2000/svg">
  <defs>
    <mask fill="white" id="clip1">
      <path d="M 0 700  L 0 0  L 319 0  L 319 700  L 239.470216962525 700  L 0 700  Z " fill-rule="evenodd" />
    </mask>
    <filter x="157px" y="1496px" width="329px" height="710px" filterUnits="userSpaceOnUse" id="filter2">
      <feOffset dx="5" dy="5" in="SourceAlpha" result="shadowOffsetInner" />
      <feGaussianBlur stdDeviation="2.5" in="shadowOffsetInner" result="shadowGaussian" />
      <feComposite in2="shadowGaussian" operator="atop" in="SourceAlpha" result="shadowComposite" />
      <feColorMatrix type="matrix" values="0 0 0 0 0  0 0 0 0 0  0 0 0 0 0  0 0 0 0.2 0  " in="shadowComposite" />
    </filter>
    <g id="widget3">
      <path d="M 0 700  L 0 0  L 319 0  L 319 700  L 239.470216962525 700  L 0 700  Z " fill-rule="nonzero" fill="#ffffff" stroke="none" transform="matrix(1 0 0 1 157 1496 )" />
      <path d="M 0 700  L 0 0  L 319 0  L 319 700  L 239.470216962525 700  L 0 700  Z " stroke-width="2" stroke="#797979" fill="none" transform="matrix(1 0 0 1 157 1496 )" mask="url(#clip1)" />
    </g>
  </defs>
  <g transform="matrix(1 0 0 1 -157 -1496 )">
    <use xlink:href="#widget3" filter="url(#filter2)" />
    <use xlink:href="#widget3" />
  </g>
</svg>