<?xml version="1.0" encoding="utf-8"?>
<svg version="1.1" xmlns:xlink="http://www.w3.org/1999/xlink" width="13px" height="13px" xmlns="http://www.w3.org/2000/svg">
  <g transform="matrix(1 0 0 1 -510 -25 )">
    <path d="M 1.03909928571431 3.69388499999997  C 0.657985714285701 3.53509000000003  0.657985714285701 2.97192071428572  1.03909928571431 2.81312571428572  L 6.67863857142856 0.463375714285689  L 12.31815 2.81312571428572  C 12.6993285714286 2.97192071428572  12.6993285714286 3.53509000000003  12.31815 3.69388499999997  L 6.67863857142856 6.04363499999999  L 1.03909928571431 3.69388499999997  Z M 6.67887999999999 9.38980714285714  L 12.7137214285714 6.73658142857141  L 12.7137214285714 5.59709428571432  L 6.67887999999999 8.25028285714291  L 0.642246428571411 5.59628642857143  L 0.642246428571411 6.73577357142858  L 6.67887999999999 9.38980714285714  Z M 12.7137214285714 9.88714999999996  L 12.7137214285714 8.74760714285713  L 6.67896357142854 11.4007214285714  L 0.642246428571411 8.74677142857144  L 0.642246428571411 9.88622142857145  L 6.67896357142854 12.5402642857143  L 12.7137214285714 9.88714999999996  Z M 2.43276428571426 3.25351000000001  L 6.67863857142856 5.02257785714284  L 10.92455 3.25351000000001  L 6.67863857142856 1.48444214285718  L 2.43276428571426 3.25351000000001  Z " fill-rule="nonzero" fill="#3858e6" stroke="none" fill-opacity="0" transform="matrix(1 0 0 1 510 25 )" />
  </g>
</svg>