<?xml version="1.0" encoding="utf-8"?>
<svg version="1.1" xmlns:xlink="http://www.w3.org/1999/xlink" width="23px" height="20px" xmlns="http://www.w3.org/2000/svg">
  <g transform="matrix(1 0 0 1 -45 -265 )">
    <path d="M 22.640625 13.6979166666667  C 22.8802083333333 13.9409722222222  23 14.2361111111111  23 14.5833333333333  L 23 18.75  C 23 19.0972222222222  22.8802083333333 19.3923611111111  22.640625 19.6354166666667  C 22.4010416666667 19.8784722222222  22.110119047619 20  21.7678571428571 20  L 17.6607142857143 20  C 17.3184523809524 20  17.0275297619048 19.8784722222222  16.7879464285714 19.6354166666667  C 16.5483630952381 19.3923611111111  16.4285714285714 19.0972222222222  16.4285714285714 18.75  L 16.4285714285714 14.5833333333333  C 16.4285714285714 14.2361111111111  16.5483630952381 13.9409722222222  16.7879464285714 13.6979166666667  C 17.0275297619048 13.4548611111111  17.3184523809524 13.3333333333333  17.6607142857143 13.3333333333333  L 18.8928571428571 13.3333333333333  L 18.8928571428571 10.8333333333333  L 12.3214285714286 10.8333333333333  L 12.3214285714286 13.3333333333333  L 13.5535714285714 13.3333333333333  C 13.8958333333333 13.3333333333333  14.186755952381 13.4548611111111  14.4263392857143 13.6979166666667  C 14.6659226190476 13.9409722222222  14.7857142857143 14.2361111111111  14.7857142857143 14.5833333333333  L 14.7857142857143 18.75  C 14.7857142857143 19.0972222222222  14.6659226190476 19.3923611111111  14.4263392857143 19.6354166666667  C 14.186755952381 19.8784722222222  13.8958333333333 20  13.5535714285714 20  L 9.44642857142857 20  C 9.10416666666667 20  8.81324404761905 19.8784722222222  8.57366071428572 19.6354166666667  C 8.33407738095238 19.3923611111111  8.21428571428572 19.0972222222222  8.21428571428572 18.75  L 8.21428571428572 14.5833333333333  C 8.21428571428572 14.2361111111111  8.33407738095238 13.9409722222222  8.57366071428572 13.6979166666667  C 8.81324404761905 13.4548611111111  9.10416666666667 13.3333333333333  9.44642857142857 13.3333333333333  L 10.6785714285714 13.3333333333333  L 10.6785714285714 10.8333333333333  L 4.10714285714286 10.8333333333333  L 4.10714285714286 13.3333333333333  L 5.33928571428571 13.3333333333333  C 5.68154761904762 13.3333333333333  5.97247023809524 13.4548611111111  6.21205357142857 13.6979166666667  C 6.45163690476191 13.9409722222222  6.57142857142857 14.2361111111111  6.57142857142857 14.5833333333333  L 6.57142857142857 18.75  C 6.57142857142857 19.0972222222222  6.45163690476191 19.3923611111111  6.21205357142857 19.6354166666667  C 5.97247023809524 19.8784722222222  5.68154761904762 20  5.33928571428571 20  L 1.23214285714286 20  C 0.889880952380953 20  0.598958333333333 19.8784722222222  0.359375 19.6354166666667  C 0.119791666666667 19.3923611111111  0 19.0972222222222  0 18.75  L 0 14.5833333333333  C 0 14.2361111111111  0.119791666666667 13.9409722222222  0.359375 13.6979166666667  C 0.598958333333333 13.4548611111111  0.889880952380953 13.3333333333333  1.23214285714286 13.3333333333333  L 2.46428571428571 13.3333333333333  L 2.46428571428571 10.8333333333333  C 2.46428571428571 10.3819444444444  2.62686011904762 9.99131944444444  2.95200892857143 9.66145833333333  C 3.27715773809524 9.33159722222222  3.66220238095238 9.16666666666667  4.10714285714286 9.16666666666667  L 10.6785714285714 9.16666666666667  L 10.6785714285714 6.66666666666667  L 9.44642857142857 6.66666666666667  C 9.10416666666667 6.66666666666667  8.81324404761905 6.54513888888889  8.57366071428572 6.30208333333333  C 8.33407738095238 6.05902777777778  8.21428571428572 5.76388888888889  8.21428571428572 5.41666666666667  L 8.21428571428572 1.25  C 8.21428571428572 0.902777777777777  8.33407738095238 0.607638888888886  8.57366071428572 0.364583333333333  C 8.81324404761905 0.121527777777777  9.10416666666667 0  9.44642857142857 0  L 13.5535714285714 0  C 13.8958333333333 0  14.186755952381 0.121527777777777  14.4263392857143 0.364583333333333  C 14.6659226190476 0.607638888888886  14.7857142857143 0.902777777777777  14.7857142857143 1.25  L 14.7857142857143 5.41666666666667  C 14.7857142857143 5.76388888888889  14.6659226190476 6.05902777777778  14.4263392857143 6.30208333333333  C 14.186755952381 6.54513888888889  13.8958333333333 6.66666666666667  13.5535714285714 6.66666666666667  L 12.3214285714286 6.66666666666667  L 12.3214285714286 9.16666666666667  L 18.8928571428571 9.16666666666667  C 19.3377976190476 9.16666666666667  19.7228422619048 9.33159722222222  20.0479910714286 9.66145833333333  C 20.3731398809524 9.99131944444444  20.5357142857143 10.3819444444444  20.5357142857143 10.8333333333333  L 20.5357142857143 13.3333333333333  L 21.7678571428571 13.3333333333333  C 22.110119047619 13.3333333333333  22.4010416666667 13.4548611111111  22.640625 13.6979166666667  Z " fill-rule="nonzero" fill="#3858e6" stroke="none" transform="matrix(1 0 0 1 45 265 )" />
  </g>
</svg>