<?xml version="1.0" encoding="utf-8"?>
<svg version="1.1" xmlns:xlink="http://www.w3.org/1999/xlink" width="393px" height="87px" xmlns="http://www.w3.org/2000/svg">
  <g transform="matrix(1 0 0 1 920 -912 )">
    <path d="M -561.546708936405 912.5  C -561.546708936405 912.5  -558.03042295671 912.88920722676  -558.03042295671 912.88920722676  C -558.03042295671 912.88920722676  -527.549787076651 955.5  -527.549787076651 955.5  C -527.549787076651 955.5  -558.03042295671 998.11079277324  -558.03042295671 998.11079277324  C -558.03042295671 998.11079277324  -561.546708936405 998.5  -561.546708936405 998.5  C -561.546708936405 998.5  -919.5 998.5  -919.5 998.5  C -919.5 998.5  -919.5 912.5  -919.5 912.5  C -919.5 912.5  -561.546708936405 912.5  -561.546708936405 912.5  Z " fill-rule="nonzero" fill="#ffffff" stroke="none" />
    <path d="M -561.546708936405 912.5  C -561.546708936405 912.5  -558.03042295671 912.88920722676  -558.03042295671 912.88920722676  C -558.03042295671 912.88920722676  -527.549787076651 955.5  -527.549787076651 955.5  C -527.549787076651 955.5  -558.03042295671 998.11079277324  -558.03042295671 998.11079277324  C -558.03042295671 998.11079277324  -561.546708936405 998.5  -561.546708936405 998.5  C -561.546708936405 998.5  -919.5 998.5  -919.5 998.5  C -919.5 998.5  -919.5 912.5  -919.5 912.5  C -919.5 912.5  -561.546708936405 912.5  -561.546708936405 912.5  Z " stroke-width="1" stroke="#aaaaaa" fill="none" />
  </g>
</svg>