<?xml version="1.0" encoding="utf-8"?>
<svg version="1.1" xmlns:xlink="http://www.w3.org/1999/xlink" width="409px" height="87px" xmlns="http://www.w3.org/2000/svg">
  <g transform="matrix(1 0 0 1 1226 -912 )">
    <path d="M -851.527293247393 912.5  C -851.527293247393 912.5  -848.028686031063 912.872101256504  -848.028686031063 912.872101256504  C -848.028686031063 912.872101256504  -817.548074931216 955.5  -817.548074931216 955.5  C -817.548074931216 955.5  -848.028686031063 998.127898743496  -848.028686031063 998.127898743496  C -848.028686031063 998.127898743496  -851.527293247393 998.5  -851.527293247393 998.5  C -851.527293247393 998.5  -1225.5 998.5  -1225.5 998.5  C -1225.5 998.5  -1225.5 912.5  -1225.5 912.5  C -1225.5 912.5  -851.527293247393 912.5  -851.527293247393 912.5  Z " fill-rule="nonzero" fill="#ffffff" stroke="none" />
    <path d="M -851.527293247393 912.5  C -851.527293247393 912.5  -848.028686031063 912.872101256504  -848.028686031063 912.872101256504  C -848.028686031063 912.872101256504  -817.548074931216 955.5  -817.548074931216 955.5  C -817.548074931216 955.5  -848.028686031063 998.127898743496  -848.028686031063 998.127898743496  C -848.028686031063 998.127898743496  -851.527293247393 998.5  -851.527293247393 998.5  C -851.527293247393 998.5  -1225.5 998.5  -1225.5 998.5  C -1225.5 998.5  -1225.5 912.5  -1225.5 912.5  C -1225.5 912.5  -851.527293247393 912.5  -851.527293247393 912.5  Z " stroke-width="1" stroke="#aaaaaa" fill="none" />
  </g>
</svg>