<?xml version="1.0" encoding="utf-8"?>
<svg version="1.1" xmlns:xlink="http://www.w3.org/1999/xlink" width="373px" height="87px" xmlns="http://www.w3.org/2000/svg">
  <g transform="matrix(1 0 0 1 1837 -912 )">
    <path d="M -1498.57097854767 912.5  C -1498.57097854767 912.5  -1495.03278617628 912.912631013821  -1495.03278617628 912.912631013821  C -1495.03278617628 912.912631013821  -1464.55210026775 955.5  -1464.55210026775 955.5  C -1464.55210026775 955.5  -1495.03278617628 998.087368986179  -1495.03278617628 998.087368986179  C -1495.03278617628 998.087368986179  -1498.57097854767 998.5  -1498.57097854767 998.5  C -1498.57097854767 998.5  -1836.5 998.5  -1836.5 998.5  C -1836.5 998.5  -1836.5 912.5  -1836.5 912.5  C -1836.5 912.5  -1498.57097854767 912.5  -1498.57097854767 912.5  Z " fill-rule="nonzero" fill="#ffffff" stroke="none" />
    <path d="M -1498.57097854767 912.5  C -1498.57097854767 912.5  -1495.03278617628 912.912631013821  -1495.03278617628 912.912631013821  C -1495.03278617628 912.912631013821  -1464.55210026775 955.5  -1464.55210026775 955.5  C -1464.55210026775 955.5  -1495.03278617628 998.087368986179  -1495.03278617628 998.087368986179  C -1495.03278617628 998.087368986179  -1498.57097854767 998.5  -1498.57097854767 998.5  C -1498.57097854767 998.5  -1836.5 998.5  -1836.5 998.5  C -1836.5 998.5  -1836.5 912.5  -1836.5 912.5  C -1836.5 912.5  -1498.57097854767 912.5  -1498.57097854767 912.5  Z " stroke-width="1" stroke="#aaaaaa" fill="none" />
  </g>
</svg>