<?xml version="1.0" encoding="utf-8"?>
<svg version="1.1" xmlns:xlink="http://www.w3.org/1999/xlink" width="351px" height="87px" xmlns="http://www.w3.org/2000/svg">
  <g transform="matrix(1 0 0 1 2143 -912 )">
    <path d="M -1826.59767512006 912.5  C -1826.59767512006 912.5  -1823.03566821892 912.941445299714  -1823.03566821892 912.941445299714  C -1823.03566821892 912.941445299714  -1792.55489554319 955.5  -1792.55489554319 955.5  C -1792.55489554319 955.5  -1823.03566821892 998.058554700286  -1823.03566821892 998.058554700286  C -1823.03566821892 998.058554700286  -1826.59767512006 998.5  -1826.59767512006 998.5  C -1826.59767512006 998.5  -2142.5 998.5  -2142.5 998.5  C -2142.5 998.5  -2142.5 912.5  -2142.5 912.5  C -2142.5 912.5  -1826.59767512006 912.5  -1826.59767512006 912.5  Z " fill-rule="nonzero" fill="#02a7f0" stroke="none" />
    <path d="M -1826.59767512006 912.5  C -1826.59767512006 912.5  -1823.03566821892 912.941445299714  -1823.03566821892 912.941445299714  C -1823.03566821892 912.941445299714  -1792.55489554319 955.5  -1792.55489554319 955.5  C -1792.55489554319 955.5  -1823.03566821892 998.058554700286  -1823.03566821892 998.058554700286  C -1823.03566821892 998.058554700286  -1826.59767512006 998.5  -1826.59767512006 998.5  C -1826.59767512006 998.5  -2142.5 998.5  -2142.5 998.5  C -2142.5 998.5  -2142.5 912.5  -2142.5 912.5  C -2142.5 912.5  -1826.59767512006 912.5  -1826.59767512006 912.5  Z " stroke-width="1" stroke="#aaaaaa" fill="none" />
  </g>
</svg>