<?xml version="1.0" encoding="utf-8"?>
<svg version="1.1" xmlns:xlink="http://www.w3.org/1999/xlink" width="373px" height="87px" xmlns="http://www.w3.org/2000/svg">
  <g transform="matrix(1 0 0 1 1837 -1585 )">
    <path d="M -1498.57097854767 1585.5  C -1498.57097854767 1585.5  -1495.03278617628 1585.91263101382  -1495.03278617628 1585.91263101382  C -1495.03278617628 1585.91263101382  -1464.55210026775 1628.5  -1464.55210026775 1628.5  C -1464.55210026775 1628.5  -1495.03278617628 1671.08736898618  -1495.03278617628 1671.08736898618  C -1495.03278617628 1671.08736898618  -1498.57097854767 1671.5  -1498.57097854767 1671.5  C -1498.57097854767 1671.5  -1836.5 1671.5  -1836.5 1671.5  C -1836.5 1671.5  -1836.5 1585.5  -1836.5 1585.5  C -1836.5 1585.5  -1498.57097854767 1585.5  -1498.57097854767 1585.5  Z " fill-rule="nonzero" fill="#02a7f0" stroke="none" />
    <path d="M -1498.57097854767 1585.5  C -1498.57097854767 1585.5  -1495.03278617628 1585.91263101382  -1495.03278617628 1585.91263101382  C -1495.03278617628 1585.91263101382  -1464.55210026775 1628.5  -1464.55210026775 1628.5  C -1464.55210026775 1628.5  -1495.03278617628 1671.08736898618  -1495.03278617628 1671.08736898618  C -1495.03278617628 1671.08736898618  -1498.57097854767 1671.5  -1498.57097854767 1671.5  C -1498.57097854767 1671.5  -1836.5 1671.5  -1836.5 1671.5  C -1836.5 1671.5  -1836.5 1585.5  -1836.5 1585.5  C -1836.5 1585.5  -1498.57097854767 1585.5  -1498.57097854767 1585.5  Z " stroke-width="1" stroke="#aaaaaa" fill="none" />
  </g>
</svg>