<?xml version="1.0" encoding="utf-8"?>
<svg version="1.1" xmlns:xlink="http://www.w3.org/1999/xlink" width="351px" height="87px" xmlns="http://www.w3.org/2000/svg">
  <g transform="matrix(1 0 0 1 2143 -1585 )">
    <path d="M -1826.59767512006 1585.5  C -1826.59767512006 1585.5  -1823.03566821892 1585.94144529971  -1823.03566821892 1585.94144529971  C -1823.03566821892 1585.94144529971  -1792.55489554319 1628.5  -1792.55489554319 1628.5  C -1792.55489554319 1628.5  -1823.03566821892 1671.05855470029  -1823.03566821892 1671.05855470029  C -1823.03566821892 1671.05855470029  -1826.59767512006 1671.5  -1826.59767512006 1671.5  C -1826.59767512006 1671.5  -2142.5 1671.5  -2142.5 1671.5  C -2142.5 1671.5  -2142.5 1585.5  -2142.5 1585.5  C -2142.5 1585.5  -1826.59767512006 1585.5  -1826.59767512006 1585.5  Z " fill-rule="nonzero" fill="#ffffff" stroke="none" />
    <path d="M -1826.59767512006 1585.5  C -1826.59767512006 1585.5  -1823.03566821892 1585.94144529971  -1823.03566821892 1585.94144529971  C -1823.03566821892 1585.94144529971  -1792.55489554319 1628.5  -1792.55489554319 1628.5  C -1792.55489554319 1628.5  -1823.03566821892 1671.05855470029  -1823.03566821892 1671.05855470029  C -1823.03566821892 1671.05855470029  -1826.59767512006 1671.5  -1826.59767512006 1671.5  C -1826.59767512006 1671.5  -2142.5 1671.5  -2142.5 1671.5  C -2142.5 1671.5  -2142.5 1585.5  -2142.5 1585.5  C -2142.5 1585.5  -1826.59767512006 1585.5  -1826.59767512006 1585.5  Z " stroke-width="1" stroke="#aaaaaa" fill="none" />
  </g>
</svg>