<?xml version="1.0" encoding="utf-8"?>
<svg version="1.1" xmlns:xlink="http://www.w3.org/1999/xlink" width="13px" height="13px" xmlns="http://www.w3.org/2000/svg">
  <g transform="matrix(1 0 0 1 -2694 -537 )">
    <path d="M 9.673828125 6.30533854166667  C 9.724609375 6.35611979166667  9.75 6.42100694444444  9.75 6.5  C 9.75 6.57899305555556  9.724609375 6.64388020833333  9.673828125 6.69466145833333  L 6.96549479166667 9.40299479166667  C 6.91471354166667 9.45377604166667  6.84982638888889 9.47916666666667  6.77083333333333 9.47916666666667  C 6.69748263888889 9.47916666666667  6.63400607638889 9.45236545138889  6.58040364583333 9.39876302083333  C 6.52680121527778 9.34516059027778  6.5 9.28168402777778  6.5 9.20833333333333  L 6.5 7.58333333333333  L 3.52083333333333 7.58333333333333  C 3.44748263888889 7.58333333333333  3.38400607638889 7.55653211805556  3.33040364583333 7.5029296875  C 3.27680121527778 7.44932725694444  3.25 7.38585069444444  3.25 7.3125  L 3.25 5.6875  C 3.25 5.61414930555556  3.27680121527778 5.55067274305556  3.33040364583333 5.4970703125  C 3.38400607638889 5.44346788194444  3.44748263888889 5.41666666666667  3.52083333333333 5.41666666666667  L 6.5 5.41666666666667  L 6.5 3.79166666666667  C 6.5 3.71267361111111  6.525390625 3.64778645833333  6.576171875 3.59700520833333  C 6.626953125 3.54622395833333  6.69184027777778 3.52083333333333  6.77083333333333 3.52083333333333  C 6.83854166666667 3.52083333333333  6.90625 3.54904513888889  6.97395833333333 3.60546875  L 9.673828125 6.30533854166667  Z M 10.486328125 8.810546875  C 10.8982204861111 8.10525173611111  11.1041666666667 7.33506944444444  11.1041666666667 6.5  C 11.1041666666667 5.66493055555556  10.8982204861111 4.89474826388889  10.486328125 4.189453125  C 10.0744357638889 3.48415798611111  9.51584201388889 2.92556423611111  8.810546875 2.513671875  C 8.10525173611111 2.10177951388889  7.33506944444444 1.89583333333333  6.5 1.89583333333333  C 5.66493055555556 1.89583333333333  4.89474826388889 2.10177951388889  4.189453125 2.513671875  C 3.48415798611111 2.92556423611111  2.92556423611111 3.48415798611111  2.513671875 4.189453125  C 2.10177951388889 4.89474826388889  1.89583333333333 5.66493055555556  1.89583333333333 6.5  C 1.89583333333333 7.33506944444444  2.10177951388889 8.10525173611111  2.513671875 8.810546875  C 2.92556423611111 9.51584201388889  3.48415798611111 10.0744357638889  4.189453125 10.486328125  C 4.89474826388889 10.8982204861111  5.66493055555556 11.1041666666667  6.5 11.1041666666667  C 7.33506944444444 11.1041666666667  8.10525173611111 10.8982204861111  8.810546875 10.486328125  C 9.51584201388889 10.0744357638889  10.0744357638889 9.51584201388889  10.486328125 8.810546875  Z M 12.1282552083333 3.2373046875  C 12.7094184027778 4.23318142361111  13 5.32074652777778  13 6.5  C 13 7.67925347222222  12.7094184027778 8.76681857638889  12.1282552083333 9.7626953125  C 11.5470920138889 10.7585720486111  10.7585720486111 11.5470920138889  9.7626953125 12.1282552083333  C 8.76681857638889 12.7094184027778  7.67925347222222 13  6.5 13  C 5.32074652777778 13  4.23318142361111 12.7094184027778  3.2373046875 12.1282552083333  C 2.24142795138889 11.5470920138889  1.45290798611111 10.7585720486111  0.871744791666667 9.7626953125  C 0.290581597222222 8.76681857638889  0 7.67925347222222  0 6.5  C 0 5.32074652777778  0.290581597222222 4.23318142361111  0.871744791666667 3.2373046875  C 1.45290798611111 2.24142795138889  2.24142795138889 1.45290798611111  3.2373046875 0.871744791666666  C 4.23318142361111 0.290581597222221  5.32074652777778 0  6.5 0  C 7.67925347222222 0  8.76681857638889 0.290581597222221  9.7626953125 0.871744791666666  C 10.7585720486111 1.45290798611111  11.5470920138889 2.24142795138889  12.1282552083333 3.2373046875  Z " fill-rule="nonzero" fill="#ffffff" stroke="none" transform="matrix(1 0 0 1 2694 537 )" />
  </g>
</svg>