<?xml version="1.0" encoding="utf-8"?>
<svg version="1.1" xmlns:xlink="http://www.w3.org/1999/xlink" width="301px" height="87px" xmlns="http://www.w3.org/2000/svg">
  <g transform="matrix(1 0 0 1 -1973 -408 )">
    <path d="M 2239.34165085178 408.5  C 2239.34165085178 408.5  2242.95639257861 409.022396229625  2242.95639257861 409.022396229625  C 2242.95639257861 409.022396229625  2273.43755431354 451.5  2273.43755431354 451.5  C 2273.43755431354 451.5  2242.95639257861 493.977603770375  2242.95639257861 493.977603770375  C 2242.95639257861 493.977603770375  2239.34165085178 494.5  2239.34165085178 494.5  C 2239.34165085178 494.5  1973.5 494.5  1973.5 494.5  C 1973.5 494.5  1973.5 408.5  1973.5 408.5  C 1973.5 408.5  2239.34165085178 408.5  2239.34165085178 408.5  Z " fill-rule="nonzero" fill="#02a7f0" stroke="none" />
    <path d="M 2239.34165085178 408.5  C 2239.34165085178 408.5  2242.95639257861 409.022396229625  2242.95639257861 409.022396229625  C 2242.95639257861 409.022396229625  2273.43755431354 451.5  2273.43755431354 451.5  C 2273.43755431354 451.5  2242.95639257861 493.977603770375  2242.95639257861 493.977603770375  C 2242.95639257861 493.977603770375  2239.34165085178 494.5  2239.34165085178 494.5  C 2239.34165085178 494.5  1973.5 494.5  1973.5 494.5  C 1973.5 494.5  1973.5 408.5  1973.5 408.5  C 1973.5 408.5  2239.34165085178 408.5  2239.34165085178 408.5  Z " stroke-width="1" stroke="#aaaaaa" fill="none" />
  </g>
</svg>