<?xml version="1.0" encoding="utf-8"?>
<svg version="1.1" xmlns:xlink="http://www.w3.org/1999/xlink" width="286px" height="87px" xmlns="http://www.w3.org/2000/svg">
  <g transform="matrix(1 0 0 1 -1721 -408 )">
    <path d="M 1972.32344864333 408.5  C 1972.32344864333 408.5  1975.95353860437 409.052129067501  1975.95353860437 409.052129067501  C 1975.95353860437 409.052129067501  2006.43489553518 451.5  2006.43489553518 451.5  C 2006.43489553518 451.5  1975.95353860437 493.947870932499  1975.95353860437 493.947870932499  C 1975.95353860437 493.947870932499  1972.32344864333 494.5  1972.32344864333 494.5  C 1972.32344864333 494.5  1721.5 494.5  1721.5 494.5  C 1721.5 494.5  1721.5 408.5  1721.5 408.5  C 1721.5 408.5  1972.32344864333 408.5  1972.32344864333 408.5  Z " fill-rule="nonzero" fill="#ffffff" stroke="none" />
    <path d="M 1972.32344864333 408.5  C 1972.32344864333 408.5  1975.95353860437 409.052129067501  1975.95353860437 409.052129067501  C 1975.95353860437 409.052129067501  2006.43489553518 451.5  2006.43489553518 451.5  C 2006.43489553518 451.5  1975.95353860437 493.947870932499  1975.95353860437 493.947870932499  C 1975.95353860437 493.947870932499  1972.32344864333 494.5  1972.32344864333 494.5  C 1972.32344864333 494.5  1721.5 494.5  1721.5 494.5  C 1721.5 494.5  1721.5 408.5  1721.5 408.5  C 1721.5 408.5  1972.32344864333 408.5  1972.32344864333 408.5  Z " stroke-width="1" stroke="#aaaaaa" fill="none" />
  </g>
</svg>