<?xml version="1.0" encoding="utf-8"?>
<svg version="1.1" xmlns:xlink="http://www.w3.org/1999/xlink" width="269px" height="87px" xmlns="http://www.w3.org/2000/svg">
  <g transform="matrix(1 0 0 1 -1485 -408 )">
    <path d="M 1719.30281947376 408.5  C 1719.30281947376 408.5  1722.94997512872 409.089781676546  1722.94997512872 409.089781676546  C 1722.94997512872 409.089781676546  1753.4316182303 451.5  1753.4316182303 451.5  C 1753.4316182303 451.5  1722.94997512872 493.910218323454  1722.94997512872 493.910218323454  C 1722.94997512872 493.910218323454  1719.30281947376 494.5  1719.30281947376 494.5  C 1719.30281947376 494.5  1485.5 494.5  1485.5 494.5  C 1485.5 494.5  1485.5 408.5  1485.5 408.5  C 1485.5 408.5  1719.30281947376 408.5  1719.30281947376 408.5  Z " fill-rule="nonzero" fill="#ffffff" stroke="none" />
    <path d="M 1719.30281947376 408.5  C 1719.30281947376 408.5  1722.94997512872 409.089781676546  1722.94997512872 409.089781676546  C 1722.94997512872 409.089781676546  1753.4316182303 451.5  1753.4316182303 451.5  C 1753.4316182303 451.5  1722.94997512872 493.910218323454  1722.94997512872 493.910218323454  C 1722.94997512872 493.910218323454  1719.30281947376 494.5  1719.30281947376 494.5  C 1719.30281947376 494.5  1485.5 494.5  1485.5 494.5  C 1485.5 494.5  1485.5 408.5  1485.5 408.5  C 1485.5 408.5  1719.30281947376 408.5  1719.30281947376 408.5  Z " stroke-width="1" stroke="#aaaaaa" fill="none" />
  </g>
</svg>