<?xml version="1.0" encoding="utf-8"?>
<svg version="1.1" xmlns:xlink="http://www.w3.org/1999/xlink" width="301px" height="87px" xmlns="http://www.w3.org/2000/svg">
  <g transform="matrix(1 0 0 1 -2800 -408 )">
    <path d="M 3066.34165085178 408.5  C 3066.34165085178 408.5  3069.95639257861 409.022396229625  3069.95639257861 409.022396229625  C 3069.95639257861 409.022396229625  3100.43755431354 451.5  3100.43755431354 451.5  C 3100.43755431354 451.5  3069.95639257861 493.977603770375  3069.95639257861 493.977603770375  C 3069.95639257861 493.977603770375  3066.34165085178 494.5  3066.34165085178 494.5  C 3066.34165085178 494.5  2800.5 494.5  2800.5 494.5  C 2800.5 494.5  2800.5 408.5  2800.5 408.5  C 2800.5 408.5  3066.34165085178 408.5  3066.34165085178 408.5  Z " fill-rule="nonzero" fill="#ffffff" stroke="none" />
    <path d="M 3066.34165085178 408.5  C 3066.34165085178 408.5  3069.95639257861 409.022396229625  3069.95639257861 409.022396229625  C 3069.95639257861 409.022396229625  3100.43755431354 451.5  3100.43755431354 451.5  C 3100.43755431354 451.5  3069.95639257861 493.977603770375  3069.95639257861 493.977603770375  C 3069.95639257861 493.977603770375  3066.34165085178 494.5  3066.34165085178 494.5  C 3066.34165085178 494.5  2800.5 494.5  2800.5 494.5  C 2800.5 494.5  2800.5 408.5  2800.5 408.5  C 2800.5 408.5  3066.34165085178 408.5  3066.34165085178 408.5  Z " stroke-width="1" stroke="#aaaaaa" fill="none" />
  </g>
</svg>