<?xml version="1.0" encoding="utf-8"?>
<svg version="1.1" xmlns:xlink="http://www.w3.org/1999/xlink" width="313px" height="87px" xmlns="http://www.w3.org/2000/svg">
  <g transform="matrix(1 0 0 1 -2520 -408 )">
    <path d="M 2798.35621261854 408.5  C 2798.35621261854 408.5  2801.95850275687 409.000637766829  2801.95850275687 409.000637766829  C 2801.95850275687 409.000637766829  2832.43953922398 451.5  2832.43953922398 451.5  C 2832.43953922398 451.5  2801.95850275687 493.999362233171  2801.95850275687 493.999362233171  C 2801.95850275687 493.999362233171  2798.35621261854 494.5  2798.35621261854 494.5  C 2798.35621261854 494.5  2520.5 494.5  2520.5 494.5  C 2520.5 494.5  2520.5 408.5  2520.5 408.5  C 2520.5 408.5  2798.35621261854 408.5  2798.35621261854 408.5  Z " fill-rule="nonzero" fill="#ffffff" stroke="none" />
    <path d="M 2798.35621261854 408.5  C 2798.35621261854 408.5  2801.95850275687 409.000637766829  2801.95850275687 409.000637766829  C 2801.95850275687 409.000637766829  2832.43953922398 451.5  2832.43953922398 451.5  C 2832.43953922398 451.5  2801.95850275687 493.999362233171  2801.95850275687 493.999362233171  C 2801.95850275687 493.999362233171  2798.35621261854 494.5  2798.35621261854 494.5  C 2798.35621261854 494.5  2520.5 494.5  2520.5 494.5  C 2520.5 494.5  2520.5 408.5  2520.5 408.5  C 2520.5 408.5  2798.35621261854 408.5  2798.35621261854 408.5  Z " stroke-width="1" stroke="#aaaaaa" fill="none" />
  </g>
</svg>