<?xml version="1.0" encoding="utf-8"?>
<svg version="1.1" xmlns:xlink="http://www.w3.org/1999/xlink" width="12px" height="12px" viewBox="1749 392.5  12 12" xmlns="http://www.w3.org/2000/svg">
  <path d="M 1755 392.5  C 1758.36 392.5  1761 395.14  1761 398.5  C 1761 401.86  1758.36 404.5  1755 404.5  C 1751.64 404.5  1749 401.86  1749 398.5  C 1749 395.14  1751.64 392.5  1755 392.5  Z " fill-rule="nonzero" fill="#f0f0f0" stroke="none" />
  <path d="M 1755 393  C 1758.08 393  1760.5 395.42  1760.5 398.5  C 1760.5 401.58  1758.08 404  1755 404  C 1751.92 404  1749.5 401.58  1749.5 398.5  C 1749.5 395.42  1751.92 393  1755 393  Z " stroke-width="1" stroke="#797979" fill="none" />
  <path d="M 1755 401.5  C 1753.32 401.5  1752 400.18  1752 398.5  C 1752 396.82  1753.32 395.5  1755 395.5  C 1756.68 395.5  1758 396.82  1758 398.5  C 1758 400.18  1756.68 401.5  1755 401.5  " fill-rule="nonzero" fill="#797979" stroke="none" />
</svg>