<?xml version="1.0" encoding="utf-8"?>
<svg version="1.1" xmlns:xlink="http://www.w3.org/1999/xlink" width="10px" height="10px" xmlns="http://www.w3.org/2000/svg">
  <g transform="matrix(1 0 0 1 -798 -1435 )">
    <path d="M 803 1435  C 805.8 1435  808 1437.2  808 1440  C 808 1442.8  805.8 1445  803 1445  C 800.2 1445  798 1442.8  798 1440  C 798 1437.2  800.2 1435  803 1435  Z " fill-rule="nonzero" fill="#333333" stroke="none" />
    <path d="M 803 1435.5  C 805.52 1435.5  807.5 1437.48  807.5 1440  C 807.5 1442.52  805.52 1444.5  803 1444.5  C 800.48 1444.5  798.5 1442.52  798.5 1440  C 798.5 1437.48  800.48 1435.5  803 1435.5  Z " stroke-width="1" stroke="#797979" fill="none" />
  </g>
</svg>