<?xml version="1.0" encoding="utf-8"?>
<svg version="1.1" xmlns:xlink="http://www.w3.org/1999/xlink" width="12px" height="14px" xmlns="http://www.w3.org/2000/svg">
  <g transform="matrix(1 0 0 1 -1346 -25 )">
    <path d="M 6.06016352380948 13.2589285714286  L 0.228923714285656 10.0044642857143  L 0.228923714285656 3.49553571428571  L 6.06016352380948 0.241071428571431  L 11.8913552380952 3.49553571428571  L 11.8913552380952 10.0044642857143  L 6.06016352380948 13.2589285714286  Z M 10.9294504761904 9.43765714285713  L 10.9294504761904 4.06234285714287  L 6.06016352380948 1.34472535714285  L 1.19082847619052 4.06234285714287  L 1.19082847619052 9.43765714285713  L 6.06016352380948 12.1553035714286  L 10.9294504761904 9.43765714285713  Z M 5.93189138624325 9.45  C 4.51523225396841 9.45  3.3668120211637 8.24116500000001  3.3668120211637 6.75  C 3.3668120211637 5.25883499999999  4.51523225396841 4.05  5.93189138624325 4.05  C 7.34854196825404 4.05  8.49699640211634 5.25883499999999  8.49699640211634 6.75  C 8.49699640211634 8.24116500000001  7.34854196825404 9.45  5.93189138624325 9.45  Z M 5.93189138624325 4.95  C 4.98745481481478 4.95  4.22183847619044 5.75588700000003  4.22183847619044 6.75  C 4.22183847619044 7.74411299999997  4.98745481481478 8.55  5.93189138624325 8.55  C 6.87632795767195 8.55  7.64196994708982 7.74411299999997  7.64196994708982 6.75  C 7.64196994708982 5.75588700000003  6.87632795767195 4.95  5.93189138624325 4.95  Z " fill-rule="nonzero" fill="#ffffff" stroke="none" transform="matrix(1 0 0 1 1346 25 )" />
  </g>
</svg>