<?xml version="1.0" encoding="utf-8"?>
<svg version="1.1" xmlns:xlink="http://www.w3.org/1999/xlink" width="12px" height="12px" xmlns="http://www.w3.org/2000/svg">
  <g transform="matrix(1 0 0 1 -1266 -26 )">
    <path d="M 7.74730206666663 8.45440766666667  C 6.93023013333345 9.11606213333333  5.88952066666661 9.51242066666667  4.75623606666682 9.51242066666667  C 2.12943935333351 9.51242066666667  0 7.38299273333334  0 4.75621033333334  C 0 2.12942790666666  2.12943935333351 0  4.75623606666682 0  C 7.38303279999991 0  9.51247213333318 2.12942790666666  9.51247213333318 4.75621033333334  C 9.51247213333318 5.88951059999999  9.1160964666667 6.930233  8.45441533333337 7.74730733333334  L 11.9798488666668 11.2727222666667  L 11.2727442 11.9798316666667  L 7.74730206666663 8.45440766666667  Z M 1 4.75621033333334  C 1 6.8307028  2.6817190666668 8.51242066666666  4.75623606666682 8.51242066666666  C 6.83075286666644 8.51242066666666  8.5124721333334 6.8307028  8.5124721333334 4.75621033333334  C 8.5124721333334 2.68171763333334  6.83075286666644 1  4.75623606666682 1  C 2.6817190666668 1  1 2.68171763333334  1 4.75621033333334  Z " fill-rule="nonzero" fill="#ffffff" stroke="none" fill-opacity="0.898039215686275" transform="matrix(1 0 0 1 1266 26 )" />
  </g>
</svg>