<?xml version="1.0" encoding="utf-8"?>
<svg version="1.1" xmlns:xlink="http://www.w3.org/1999/xlink" width="13px" height="10px" xmlns="http://www.w3.org/2000/svg">
  <g transform="matrix(1 0 0 1 -1305 -27 )">
    <path d="M 0.161547853999991 1.24897003125  C 0.161547853999991 0.731203331250001  0.59807025200007 0.311470031249996  1.13654785400013 0.311470031249996  L 11.86154788 0.311470031249996  C 12.4000258849999 0.311470031249996  12.8365478800001 0.731203106249993  12.8365478800001 1.24897003125  L 12.8365478800001 8.74897006250001  C 12.8365478800001 9.26673649999999  12.400024975 9.68647006250001  11.86154788 9.68647006250001  L 1.13654785400013 9.68647006250001  C 0.598070193500007 9.68647006250001  0.161547853999991 9.26673737499999  0.161547853999991 8.74897006250001  L 0.161547853999991 1.24897003125  Z M 11.470194385 1.24897003125  L 1.52790096550007 1.24897003125  L 6.49904788000003 4.43560243749999  L 11.470194385 1.24897003125  Z M 1.13654785400013 2.12483745  L 1.13654785400013 8.74897006250001  L 11.86154788 8.74897006250001  L 11.86154788 2.12483756250001  L 6.49904788000003 5.562337625  L 1.13654785400013 2.12483745  Z " fill-rule="nonzero" fill="#ffffff" stroke="none" transform="matrix(1 0 0 1 1305 27 )" />
  </g>
</svg>