<?xml version="1.0" encoding="utf-8"?>
<svg version="1.1" xmlns:xlink="http://www.w3.org/1999/xlink" width="389px" height="83px" xmlns="http://www.w3.org/2000/svg">
  <g transform="matrix(1 0 0 1 -483 -348 )">
    <path d="M 484 354  A 5 5 0 0 1 489 349 L 866 349  A 5 5 0 0 1 871 354 L 871 425  A 5 5 0 0 1 866 430 L 489 430  A 5 5 0 0 1 484 425 L 484 354  Z " fill-rule="nonzero" fill="#3858e6" stroke="none" fill-opacity="0.0470588235294118" />
    <path d="M 483.5 354  A 5.5 5.5 0 0 1 489 348.5 L 866 348.5  A 5.5 5.5 0 0 1 871.5 354 L 871.5 425  A 5.5 5.5 0 0 1 866 430.5 L 489 430.5  A 5.5 5.5 0 0 1 483.5 425 L 483.5 354  Z " stroke-width="1" stroke="#81d3f8" fill="none" stroke-opacity="0.0980392156862745" />
  </g>
</svg>