<?xml version="1.0" encoding="utf-8"?>
<svg version="1.1" xmlns:xlink="http://www.w3.org/1999/xlink" width="26px" height="20px" xmlns="http://www.w3.org/2000/svg">
  <g transform="matrix(1 0 0 1 -47 -203 )">
    <path d="M 4.75892857142857 15.3409090909091  C 5.30059523809524 15.8712121212121  5.57142857142857 16.5151515151515  5.57142857142857 17.2727272727273  C 5.57142857142857 18.030303030303  5.30059523809524 18.6742424242424  4.75892857142857 19.2045454545455  C 4.21726190476191 19.7348484848485  3.55952380952381 20  2.78571428571429 20  C 2.01190476190476 20  1.35416666666667 19.7348484848485  0.8125 19.2045454545455  C 0.270833333333333 18.6742424242424  0 18.030303030303  0 17.2727272727273  C 0 16.5151515151515  0.270833333333333 15.8712121212121  0.8125 15.3409090909091  C 1.35416666666667 14.8106060606061  2.01190476190476 14.5454545454545  2.78571428571429 14.5454545454545  C 3.55952380952381 14.5454545454545  4.21726190476191 14.8106060606061  4.75892857142857 15.3409090909091  Z M 4.75892857142857 8.06818181818182  C 5.30059523809524 8.59848484848485  5.57142857142857 9.24242424242424  5.57142857142857 10  C 5.57142857142857 10.7575757575758  5.30059523809524 11.4015151515152  4.75892857142857 11.9318181818182  C 4.21726190476191 12.4621212121212  3.55952380952381 12.7272727272727  2.78571428571429 12.7272727272727  C 2.01190476190476 12.7272727272727  1.35416666666667 12.4621212121212  0.8125 11.9318181818182  C 0.270833333333333 11.4015151515152  0 10.7575757575758  0 10  C 0 9.24242424242424  0.270833333333333 8.59848484848485  0.8125 8.06818181818182  C 1.35416666666667 7.53787878787879  2.01190476190476 7.27272727272727  2.78571428571429 7.27272727272727  C 3.55952380952381 7.27272727272727  4.21726190476191 7.53787878787879  4.75892857142857 8.06818181818182  Z M 25.8621651785714 15.5894886363636  C 25.9540550595238 15.6794507575758  26 15.7859848484848  26 15.9090909090909  L 26 18.6363636363636  C 26 18.7594696969697  25.9540550595238 18.8660037878788  25.8621651785714 18.9559659090909  C 25.7702752976191 19.045928030303  25.6614583333333 19.0909090909091  25.5357142857143 19  L 7.89285714285714 19  C 7.7671130952381 19.0909090909091  7.65829613095238 19.045928030303  7.56640625 18.9559659090909  C 7.47451636904762 18.8660037878788  7.42857142857143 18.7594696969697  7.42857142857143 18.6363636363636  L 7.42857142857143 15.9090909090909  C 7.42857142857143 15.7859848484848  7.47451636904762 15.6794507575758  7.56640625 15.5894886363636  C 7.65829613095238 15.4995265151515  7.7671130952381 15.4545454545455  7.89285714285714 15.4545454545455  L 25.5357142857143 15.4545454545455  C 25.6614583333333 15.4545454545455  25.7702752976191 15.4995265151515  25.8621651785714 15.5894886363636  Z M 4.75892857142857 0.795454545454546  C 5.30059523809524 1.32575757575758  5.57142857142857 1.96969696969697  5.57142857142857 2.72727272727273  C 5.57142857142857 3.48484848484848  5.30059523809524 4.12878787878788  4.75892857142857 4.65909090909091  C 4.21726190476191 5.18939393939394  3.55952380952381 5.45454545454545  2.78571428571429 5.45454545454545  C 2.01190476190476 5.45454545454545  1.35416666666667 5.18939393939394  0.8125 4.65909090909091  C 0.270833333333333 4.12878787878788  0 3.48484848484848  0 2.72727272727273  C 0 1.96969696969697  0.270833333333333 1.32575757575758  0.8125 0.795454545454546  C 1.35416666666667 0.265151515151514  2.01190476190476 0  2.78571428571429 0  C 3.55952380952381 0  4.21726190476191 0.265151515151514  4.75892857142857 0.795454545454546  Z M 25.8621651785714 8.31676136363637  C 25.9540550595238 8.40672348484848  26 8.51325757575758  26 8.63636363636363  L 26 11.3636363636364  C 26 11.4867424242424  25.9540550595238 11.5932765151515  25.8621651785714 11.6832386363636  C 25.7702752976191 11.7732007575758  25.6614583333333 11.8181818181818  25.5357142857143 11.8181818181818  L 7.89285714285714 11.8181818181818  C 7.7671130952381 11.8181818181818  7.65829613095238 11.7732007575758  7.56640625 11.6832386363636  C 7.47451636904762 11.5932765151515  7.42857142857143 11.4867424242424  7.42857142857143 11.3636363636364  L 7.42857142857143 8.63636363636363  C 7.42857142857143 8.51325757575758  7.47451636904762 8.40672348484848  7.56640625 8.31676136363637  C 7.65829613095238 8.22679924242424  7.7671130952381 8.18181818181818  7.89285714285714 8.18181818181818  L 25.5357142857143 8.18181818181818  C 25.6614583333333 8.18181818181818  25.7702752976191 8.22679924242424  25.8621651785714 8.31676136363637  Z M 25.8621651785714 1.04403409090909  C 25.9540550595238 1.13399621212121  26 1.2405303030303  26 1.36363636363636  L 26 4.09090909090909  C 26 4.21401515151515  25.9540550595238 4.32054924242424  25.8621651785714 4.41051136363637  C 25.7702752976191 4.50047348484848  25.6614583333333 4.54545454545455  25.5357142857143 4.54545454545455  L 7.89285714285714 4.54545454545455  C 7.7671130952381 4.54545454545455  7.65829613095238 4.50047348484848  7.56640625 4.41051136363637  C 7.47451636904762 4.32054924242424  7.42857142857143 4.21401515151515  7.42857142857143 4.09090909090909  L 7.42857142857143 1.36363636363636  C 7.42857142857143 1.2405303030303  7.47451636904762 1.13399621212121  7.56640625 1.04403409090909  C 7.65829613095238 0.954071969696968  7.7671130952381 0.909090909090908  7.89285714285714 1  L 25.5357142857143 1  C 25.6614583333333 0.909090909090908  25.7702752976191 0.954071969696968  25.8621651785714 1.04403409090909  Z " fill-rule="nonzero" fill="#7f7f7f" stroke="none" transform="matrix(1 0 0 1 47 203 )" />
  </g>
</svg>