<?xml version="1.0" encoding="utf-8"?>
<svg version="1.1" xmlns:xlink="http://www.w3.org/1999/xlink" width="13px" height="13px" xmlns="http://www.w3.org/2000/svg">
  <g transform="matrix(1 0 0 1 -1385 -25 )">
    <path d="M 9.91249999999991 3.574999766  C 9.91249999999991 5.45967181500001  8.38467181500005 6.9875  6.5 6.9875  C 4.61532817200009 6.9875  3.08750000000009 5.45967181500001  3.08750000000009 3.574999766  C 3.08750000000009 1.690327938  4.61532817200009 0.162499999999994  6.5 0.162499999999994  C 8.38467181500005 0.162499999999994  9.91249999999991 1.690327938  9.91249999999991 3.574999766  Z M 12.31405825 9.281455235  C 12.63956005 9.43692048  12.8375000000001 9.770789795  12.8375000000001 10.131512755  L 12.8375000000001 12.35  C 12.8375000000001 12.61923858  12.61923858 12.8375  12.3499999999999 12.8375  L 0.650001280499964 12.8375  C 0.380762447000052 12.8375  0.162499999999909 12.61923858  0.162499999999909 12.35  L 0.162499999999909 10.131512755  C 0.162499999999909 9.770789795  0.360440528500021 9.43692048  0.685942614499936 9.281455235  C 2.45316800299997 8.43739890499999  4.41984623600001 7.96250000000001  6.50000045499996 7.96250000000001  C 8.5801542449999 7.96250000000001  10.5468326600001 8.43739890499999  12.31405825 9.281455235  Z M 4.0625 3.574999766  C 4.0625 4.9211937645  5.15380530600009 6.0125  6.5 6.0125  C 7.84619374500016 6.0125  8.9375 4.9211942325  8.9375 3.574999766  C 8.9375 2.22880553349999  7.84619374500016 1.1375  6.5 1.1375  C 5.15380530600009 1.1375  4.0625 2.22880553349999  4.0625 3.574999766  Z M 11.8625 11.8625  L 11.8625 10.146335225  C 10.230014535 9.37208415000001  8.41743168499988 8.9375  6.50000045499996 8.9375  C 4.58256877650001 8.9375  2.76998638800001 9.37208415000001  1.13750000000005 10.146335225  L 1.13750000000005 11.8625  L 11.8625 11.8625  Z " fill-rule="nonzero" fill="#ffffff" stroke="none" transform="matrix(1 0 0 1 1385 25 )" />
  </g>
</svg>