<?xml version="1.0" encoding="utf-8"?>
<svg version="1.1" xmlns:xlink="http://www.w3.org/1999/xlink" width="283px" height="158px" xmlns="http://www.w3.org/2000/svg">
  <defs>
    <linearGradient gradientUnits="userSpaceOnUse" x1="286.837331687423" y1="7.89232706374046" x2="-3.83733168742293" y2="150.10767293626" id="LinearGradient12">
      <stop id="Stop13" stop-color="#5b8ff9" offset="0" />
      <stop id="Stop14" stop-color="#5b8ff9" offset="0.08" />
      <stop id="Stop15" stop-color="#b0d0ff" offset="0.92" />
      <stop id="Stop16" stop-color="#b0d0ff" offset="1" />
    </linearGradient>
    <mask fill="white" id="clip17">
      <path d="M 0 158  C 3.26325840633703 70.1827011332123  74.9127278485129 0  162.822533811822 0  C 210.398111299842 0  253.211319994845 20.5552883393284  283 53.3367801516854  C 283 53.3367801516854  266.175478810479 68.8661712059861  266.175478810479 68.8661712059861  C 240.557200445186 40.6738806938369  203.737702979814 22.9961836381144  162.822533811822 22.9961836381144  C 87.5127241411181 22.9961836381144  26.0787625175554 82.8869795756214  22.8303823761009 157.999921268198  C 22.8303823761009 157.999921268198  0 158  0 158  Z " fill-rule="evenodd" />
    </mask>
  </defs>
  <g transform="matrix(1 0 0 1 -1012 -1069 )">
    <path d="M 0 158  C 3.26325840633703 70.1827011332123  74.9127278485129 0  162.822533811822 0  C 210.398111299842 0  253.211319994845 20.5552883393284  283 53.3367801516854  C 283 53.3367801516854  266.175478810479 68.8661712059861  266.175478810479 68.8661712059861  C 240.557200445186 40.6738806938369  203.737702979814 22.9961836381144  162.822533811822 22.9961836381144  C 87.5127241411181 22.9961836381144  26.0787625175554 82.8869795756214  22.8303823761009 157.999921268198  C 22.8303823761009 157.999921268198  0 158  0 158  Z " fill-rule="nonzero" fill="url(#LinearGradient12)" stroke="none" transform="matrix(1 0 0 1 1012 1069 )" />
    <path d="M 0 158  C 3.26325840633703 70.1827011332123  74.9127278485129 0  162.822533811822 0  C 210.398111299842 0  253.211319994845 20.5552883393284  283 53.3367801516854  C 283 53.3367801516854  266.175478810479 68.8661712059861  266.175478810479 68.8661712059861  C 240.557200445186 40.6738806938369  203.737702979814 22.9961836381144  162.822533811822 22.9961836381144  C 87.5127241411181 22.9961836381144  26.0787625175554 82.8869795756214  22.8303823761009 157.999921268198  C 22.8303823761009 157.999921268198  0 158  0 158  Z " stroke-width="2" stroke="#797979" fill="none" transform="matrix(1 0 0 1 1012 1069 )" mask="url(#clip17)" />
  </g>
</svg>