<?xml version="1.0" encoding="utf-8"?>
<svg version="1.1" xmlns:xlink="http://www.w3.org/1999/xlink" width="327px" height="158px" xmlns="http://www.w3.org/2000/svg">
  <defs>
    <mask fill="white" id="clip11">
      <path d="M 0 158  C 3.27683605546104 70.1827011332123  75.2244220531994 0  163.5 0  C 251.775577946801 0  323.723163944539 70.1827011332123  327 158  C 327 158  304.074625783637 157.999921268198  304.074625783637 157.999921268198  C 300.812729898012 82.8869795756214  239.123156039266 22.9961836381144  163.5 22.9961836381144  C 87.8768439607337 22.9961836381144  26.1872701019882 82.8869795756214  22.9253742163633 157.999921268198  C 22.9253742163633 157.999921268198  0 158  0 158  Z " fill-rule="evenodd" />
    </mask>
  </defs>
  <g transform="matrix(1 0 0 1 -1012 -1069 )">
    <path d="M 0 158  C 3.27683605546104 70.1827011332123  75.2244220531994 0  163.5 0  C 251.775577946801 0  323.723163944539 70.1827011332123  327 158  C 327 158  304.074625783637 157.999921268198  304.074625783637 157.999921268198  C 300.812729898012 82.8869795756214  239.123156039266 22.9961836381144  163.5 22.9961836381144  C 87.8768439607337 22.9961836381144  26.1872701019882 82.8869795756214  22.9253742163633 157.999921268198  C 22.9253742163633 157.999921268198  0 158  0 158  Z " fill-rule="nonzero" fill="#000000" stroke="none" transform="matrix(1 0 0 1 1012 1069 )" />
    <path d="M 0 158  C 3.27683605546104 70.1827011332123  75.2244220531994 0  163.5 0  C 251.775577946801 0  323.723163944539 70.1827011332123  327 158  C 327 158  304.074625783637 157.999921268198  304.074625783637 157.999921268198  C 300.812729898012 82.8869795756214  239.123156039266 22.9961836381144  163.5 22.9961836381144  C 87.8768439607337 22.9961836381144  26.1872701019882 82.8869795756214  22.9253742163633 157.999921268198  C 22.9253742163633 157.999921268198  0 158  0 158  Z " stroke-width="2" stroke="#797979" fill="none" transform="matrix(1 0 0 1 1012 1069 )" mask="url(#clip11)" />
  </g>
</svg>