<?xml version="1.0" encoding="utf-8"?>
<svg version="1.1" xmlns:xlink="http://www.w3.org/1999/xlink" width="10px" height="12px" xmlns="http://www.w3.org/2000/svg">
  <g transform="matrix(1 0 0 1 -897 -447 )">
    <path d="M 3.57244318181818 4.5703125  C 3.61505681818182 4.6171875  3.63636363636364 4.67708333333333  3.63636363636364 4.75  L 3.63636363636364 9.25  C 3.63636363636364 9.32291666666667  3.61505681818182 9.3828125  3.57244318181818 9.4296875  C 3.52982954545455 9.4765625  3.47537878787879 9.5  3.40909090909091 9.5  L 2.95454545454545 9.5  C 2.88825757575758 9.5  2.83380681818182 9.4765625  2.79119318181818 9.4296875  C 2.74857954545455 9.3828125  2.72727272727273 9.32291666666667  2.72727272727273 9.25  L 2.72727272727273 4.75  C 2.72727272727273 4.67708333333333  2.74857954545455 4.6171875  2.79119318181818 4.5703125  C 2.83380681818182 4.5234375  2.88825757575758 4.5  2.95454545454545 4.5  L 3.40909090909091 4.5  C 3.47537878787879 4.5  3.52982954545455 4.5234375  3.57244318181818 4.5703125  Z M 5.390625 4.5703125  C 5.43323863636364 4.6171875  5.45454545454545 4.67708333333333  5.45454545454545 4.75  L 5.45454545454545 9.25  C 5.45454545454545 9.32291666666667  5.43323863636364 9.3828125  5.390625 9.4296875  C 5.34801136363636 9.4765625  5.29356060606061 9.5  5.22727272727273 9.5  L 4.77272727272727 9.5  C 4.70643939393939 9.5  4.65198863636364 9.4765625  4.609375 9.4296875  C 4.56676136363636 9.3828125  4.54545454545455 9.32291666666667  4.54545454545455 9.25  L 4.54545454545455 4.75  C 4.54545454545455 4.67708333333333  4.56676136363636 4.6171875  4.609375 4.5703125  C 4.65198863636364 4.5234375  4.70643939393939 4.5  4.77272727272727 4.5  L 5.22727272727273 4.5  C 5.29356060606061 4.5  5.34801136363636 4.5234375  5.390625 4.5703125  Z M 7.20880681818182 4.5703125  C 7.25142045454545 4.6171875  7.27272727272727 4.67708333333333  7.27272727272727 4.75  L 7.27272727272727 9.25  C 7.27272727272727 9.32291666666667  7.25142045454545 9.3828125  7.20880681818182 9.4296875  C 7.16619318181818 9.4765625  7.11174242424242 9.5  7.04545454545455 9.5  L 6.59090909090909 9.5  C 6.52462121212121 9.5  6.47017045454545 9.4765625  6.42755681818182 9.4296875  C 6.38494318181818 9.3828125  6.36363636363636 9.32291666666667  6.36363636363636 9.25  L 6.36363636363636 4.75  C 6.36363636363636 4.67708333333333  6.38494318181818 4.6171875  6.42755681818182 4.5703125  C 6.47017045454545 4.5234375  6.52462121212121 4.5  6.59090909090909 4.5  L 7.04545454545455 4.5  C 7.11174242424242 4.5  7.16619318181818 4.5234375  7.20880681818182 4.5703125  Z M 8.13210227272727 10.72265625  C 8.16524621212121 10.6263020833333  8.18181818181818 10.5208333333333  8.18181818181818 10.40625  L 8.18181818181818 3  L 1.81818181818182 3  L 1.81818181818182 10.40625  C 1.81818181818182 10.5208333333333  1.83475378787879 10.6263020833333  1.86789772727273 10.72265625  C 1.90104166666667 10.8190104166667  1.93536931818182 10.8893229166667  1.97088068181818 10.93359375  C 2.00639204545455 10.9778645833333  2.03125 11  2.04545454545455 11  L 7.95454545454545 11  C 7.96875 11  7.99360795454545 10.9778645833333  8.02911931818182 10.93359375  C 8.06463068181818 10.8893229166667  8.09895833333334 10.8190104166667  8.13210227272727 10.72265625  Z M 3.75710227272727 1.0859375  L 3.40909090909091 2  L 6.59090909090909 2  L 6.25 1.0859375  C 6.21685606060606 1.0390625  6.17660984848485 1.01041666666667  6.12926136363636 1  L 3.87784090909091 1  C 3.83049242424242 1.01041666666667  3.79024621212121 1.0390625  3.75710227272727 1.0859375  Z M 9.93607954545455 2.0703125  C 9.97869318181818 2.1171875  10 2.17708333333333  10 2.25  L 10 2.75  C 10 2.82291666666667  9.97869318181818 2.8828125  9.93607954545455 2.9296875  C 9.89346590909091 2.9765625  9.83901515151515 3  9.77272727272727 3  L 9.09090909090909 3  L 9.09090909090909 10.40625  C 9.09090909090909 10.8385416666667  8.97964015151515 11.2122395833333  8.75710227272727 11.52734375  C 8.53456439393939 11.8424479166667  8.26704545454545 12  7.95454545454545 12  L 2.04545454545455 12  C 1.73295454545455 12  1.46543560606061 11.84765625  1.24289772727273 11.54296875  C 1.02035984848485 11.23828125  0.909090909090909 10.8697916666667  0.909090909090909 10.4375  L 0.909090909090909 3  L 0.227272727272727 3  C 0.160984848484848 3  0.106534090909091 2.9765625  0.0639204545454545 2.9296875  C 0.0213068181818182 2.8828125  0 2.82291666666667  0 2.75  L 0 2.25  C 0 2.17708333333333  0.0213068181818182 2.1171875  0.0639204545454545 2.0703125  C 0.106534090909091 2.0234375  0.160984848484848 2  0.227272727272727 2  L 2.421875 2  L 2.91903409090909 0.6953125  C 2.99005681818182 0.502604166666666  3.11789772727273 0.338541666666666  3.30255681818182 0.203125  C 3.48721590909091 0.0677083333333326  3.67424242424242 0  3.86363636363636 0  L 6.13636363636364 0  C 6.32575757575758 0  6.51278409090909 0.0677083333333326  6.69744318181818 0.203125  C 6.88210227272727 0.338541666666666  7.00994318181818 0.502604166666666  7.08096590909091 0.6953125  L 7.578125 2  L 9.77272727272727 2  C 9.83901515151515 2  9.89346590909091 2.0234375  9.93607954545455 2.0703125  Z " fill-rule="nonzero" fill="#e63858" stroke="none" transform="matrix(1 0 0 1 897 447 )" />
  </g>
</svg>