<?xml version="1.0" encoding="utf-8"?>
<svg version="1.1" xmlns:xlink="http://www.w3.org/1999/xlink" width="12px" height="12px" viewBox="744 411  12 12" xmlns="http://www.w3.org/2000/svg">
  <path d="M 750 411  C 753.36 411  756 413.64  756 417  C 756 420.36  753.36 423  750 423  C 746.64 423  744 420.36  744 417  C 744 413.64  746.64 411  750 411  Z " fill-rule="nonzero" fill="#f0f0f0" stroke="none" />
  <path d="M 750 411.5  C 753.08 411.5  755.5 413.92  755.5 417  C 755.5 420.08  753.08 422.5  750 422.5  C 746.92 422.5  744.5 420.08  744.5 417  C 744.5 413.92  746.92 411.5  750 411.5  Z " stroke-width="1" stroke="#797979" fill="none" />
  <path d="M 750 420  C 748.32 420  747 418.68  747 417  C 747 415.32  748.32 414  750 414  C 751.68 414  753 415.32  753 417  C 753 418.68  751.68 420  750 420  " fill-rule="nonzero" fill="#797979" stroke="none" />
</svg>