<?xml version="1.0" encoding="utf-8"?>
<svg version="1.1" xmlns:xlink="http://www.w3.org/1999/xlink" width="12px" height="12px" viewBox="1265 411  12 12" xmlns="http://www.w3.org/2000/svg">
  <path d="M 1271 411  C 1274.36 411  1277 413.64  1277 417  C 1277 420.36  1274.36 423  1271 423  C 1267.64 423  1265 420.36  1265 417  C 1265 413.64  1267.64 411  1271 411  Z " fill-rule="nonzero" fill="#f0f0f0" stroke="none" />
  <path d="M 1271 411.5  C 1274.08 411.5  1276.5 413.92  1276.5 417  C 1276.5 420.08  1274.08 422.5  1271 422.5  C 1267.92 422.5  1265.5 420.08  1265.5 417  C 1265.5 413.92  1267.92 411.5  1271 411.5  Z " stroke-width="1" stroke="#7f7f7f" fill="none" />
  <path d="M 1271 420  C 1269.32 420  1268 418.68  1268 417  C 1268 415.32  1269.32 414  1271 414  C 1272.68 414  1274 415.32  1274 417  C 1274 418.68  1272.68 420  1271 420  " fill-rule="nonzero" fill="#7f7f7f" stroke="none" />
</svg>