<?xml version="1.0" encoding="utf-8"?>
<svg version="1.1" xmlns:xlink="http://www.w3.org/1999/xlink" width="12px" height="12px" viewBox="1329 411  12 12" xmlns="http://www.w3.org/2000/svg">
  <path d="M 1335 411  C 1338.36 411  1341 413.64  1341 417  C 1341 420.36  1338.36 423  1335 423  C 1331.64 423  1329 420.36  1329 417  C 1329 413.64  1331.64 411  1335 411  Z " fill-rule="nonzero" fill="#ffffff" stroke="none" />
  <path d="M 1335 411.5  C 1338.08 411.5  1340.5 413.92  1340.5 417  C 1340.5 420.08  1338.08 422.5  1335 422.5  C 1331.92 422.5  1329.5 420.08  1329.5 417  C 1329.5 413.92  1331.92 411.5  1335 411.5  Z " stroke-width="1" stroke="#02a7f0" fill="none" />
  <path d="M 1335 420  C 1333.32 420  1332 418.68  1332 417  C 1332 415.32  1333.32 414  1335 414  C 1336.68 414  1338 415.32  1338 417  C 1338 418.68  1336.68 420  1335 420  " fill-rule="nonzero" fill="#02a7f0" stroke="none" />
</svg>