<?xml version="1.0" encoding="utf-8"?>
<svg version="1.1" xmlns:xlink="http://www.w3.org/1999/xlink" width="12px" height="12px" viewBox="1066 357.5  12 12" xmlns="http://www.w3.org/2000/svg">
  <path d="M 1072 357.5  C 1075.36 357.5  1078 360.14  1078 363.5  C 1078 366.86  1075.36 369.5  1072 369.5  C 1068.64 369.5  1066 366.86  1066 363.5  C 1066 360.14  1068.64 357.5  1072 357.5  Z " fill-rule="nonzero" fill="#f0f0f0" stroke="none" />
  <path d="M 1072 358  C 1075.08 358  1077.5 360.42  1077.5 363.5  C 1077.5 366.58  1075.08 369  1072 369  C 1068.92 369  1066.5 366.58  1066.5 363.5  C 1066.5 360.42  1068.92 358  1072 358  Z " stroke-width="1" stroke="#797979" fill="none" />
  <path d="M 1072 366.5  C 1070.32 366.5  1069 365.18  1069 363.5  C 1069 361.82  1070.32 360.5  1072 360.5  C 1073.68 360.5  1075 361.82  1075 363.5  C 1075 365.18  1073.68 366.5  1072 366.5  " fill-rule="nonzero" fill="#797979" stroke="none" />
</svg>