<?xml version="1.0" encoding="utf-8"?>
<svg version="1.1" xmlns:xlink="http://www.w3.org/1999/xlink" width="29px" height="23px" xmlns="http://www.w3.org/2000/svg">
  <g transform="matrix(1 0 0 1 -3166 -407 )">
    <path d="M 27.3816964285714 8.83735795454546  C 27.9966517857143 8.41264204545455  28.5360863095238 7.93892045454546  29 7.41619318181818  L 29 20.3863636363636  C 29 21.1051136363636  28.7464657738095 21.7204071969697  28.2393973214286 22.2322443181818  C 27.7323288690476 22.7440814393939  27.1227678571429 23  26.4107142857143 23  L 2.58928571428571 23  C 1.87723214285714 23  1.26767113095238 22.7440814393939  0.760602678571429 22.2322443181818  C 0.253534226190476 21.7204071969697  0 21.1051136363636  0 20.3863636363636  L 0 7.41619318181818  C 0.474702380952381 7.9498106060606  1.01953125 8.42353219696969  1.63448660714286 8.83735795454546  C 5.53999255952381 11.5163352272727  8.22098214285714 13.3948863636364  9.67745535714286 14.4730113636364  C 10.2924107142857 14.9303977272727  10.7913876488095 15.2870501893939  11.1743861607143 15.54296875  C 11.557384672619 15.7988873106061  12.067150297619 16.0602509469697  12.7036830357143 16.3270596590909  C 13.3402157738095 16.5938683712121  13.93359375 16.7272727272727  14.4838169642857 16.7272727272727  L 14.5 16.7272727272727  L 14.5161830357143 16.7272727272727  C 15.06640625 16.7272727272727  15.6597842261905 16.5938683712121  16.2963169642857 16.3270596590909  C 16.932849702381 16.0602509469697  17.442615327381 15.7988873106061  17.8256138392857 15.54296875  C 18.2086123511905 15.2870501893939  18.7075892857143 14.9303977272727  19.3225446428571 14.4730113636364  C 21.1566220238095 13.1335227272727  23.843005952381 11.2549715909091  27.3816964285714 8.83735795454546  Z M 28.2313058035714 0.767755681818181  C 28.7437686011905 1.2795928030303  29 1.89488636363636  29 2.61363636363636  C 29 3.47395833333333  28.7356770833333 4.29616477272727  28.20703125 5.08025568181818  C 27.6783854166667 5.86434659090909  27.0202752976191 6.53409090909091  26.2327008928571 7.08948863636364  C 22.1761532738095 9.93181818181818  19.651599702381 11.7014678030303  18.6590401785714 12.3984375  C 18.5511532738095 12.4746685606061  18.3218936011905 12.6407433712121  17.9712611607143 12.8966619318182  C 17.6206287202381 13.1525804924242  17.329334077381 13.3594933712121  17.0973772321429 13.5174005681818  C 16.8654203869048 13.6753077651515  16.5849144345238 13.8522727272727  16.255859375 14.0482954545455  C 15.9268043154762 14.2443181818182  15.6166294642857 14.3913352272727  15.3253348214286 14.4893465909091  C 15.0340401785714 14.5873579545455  14.7643229166667 14.6363636363636  14.5161830357143 14.6363636363636  L 14.5 14.6363636363636  L 14.4838169642857 14.6363636363636  C 14.2356770833333 14.6363636363636  13.9659598214286 14.5873579545455  13.6746651785714 14.4893465909091  C 13.3833705357143 14.3913352272727  13.0731956845238 14.2443181818182  12.744140625 14.0482954545455  C 12.4150855654762 13.8522727272727  12.1345796130952 13.6753077651515  11.9026227678571 13.5174005681818  C 11.670665922619 13.3594933712121  11.3793712797619 13.1525804924242  11.0287388392857 12.8966619318182  C 10.6781063988095 12.6407433712121  10.4488467261905 12.4746685606061  10.3409598214286 12.3984375  C 9.35918898809524 11.7014678030303  7.94587053571429 10.7077414772727  6.10100446428571 9.41725852272727  C 4.25613839285714 8.12677556818182  3.15029761904762 7.35085227272727  2.78348214285714 7.08948863636364  C 2.11458333333333 6.63210227272727  1.48344494047619 6.00319602272727  0.890066964285714 5.20276988636364  C 0.296688988095238 4.40234375  0 3.65909090909091  0 2.97301136363636  C 0 2.12357954545454  0.223865327380952 1.41571969696969  0.671595982142857 0.849431818181819  C 1.11932663690476 0.283143939393937  1.75855654761905 0  2.58928571428571 0  L 26.4107142857143 0  C 27.1119791666667 0  27.7188430059524 0.255918560606058  28.2313058035714 0.767755681818181  Z " fill-rule="nonzero" fill="#3858e6" stroke="none" fill-opacity="0.658823529411765" transform="matrix(1 0 0 1 3166 407 )" />
  </g>
</svg>