<?xml version="1.0" encoding="utf-8"?>
<svg version="1.1" xmlns:xlink="http://www.w3.org/1999/xlink" width="29px" height="29px" xmlns="http://www.w3.org/2000/svg">
  <g transform="matrix(1 0 0 1 -3230 -403 )">
    <path d="M 28.9382102272727 22.4708806818182  C 28.9794034090909 22.5669981060606  29 22.7111742424242  29 22.9034090909091  C 29 23.2741477272727  28.9313446969697 23.7581676136364  28.7940340909091 24.35546875  C 28.6567234848485 24.9527698863636  28.5125473484849 25.4230587121212  28.3615056818182 25.7663352272727  C 28.0731534090909 26.4528882575758  27.2355587121212 27.180634469697  25.8487215909091 27.9495738636364  C 24.5580018939394 28.6498579545455  23.2810132575758 29  22.0177556818182 29  C 21.6470170454545 29  21.2831439393939 28.9759706439394  20.9261363636364 28.9279119318182  C 20.5691287878788 28.879853219697  20.1743607954546 28.7940340909091  19.7418323863636 28.6704545454545  C 19.3093039772727 28.546875  18.9866240530303 28.4473248106061  18.7737926136364 28.3718039772727  C 18.5609611742424 28.2962831439394  18.1799242424242 28.1555397727273  17.6306818181818 27.9495738636364  C 17.0814393939394 27.7436079545455  16.7450284090909 27.6200284090909  16.6214488636364 27.5788352272727  C 15.2758049242424 27.0982481060606  14.0743371212121 26.5284090909091  13.0170454545455 25.8693181818182  C 11.2732007575758 24.7845643939394  9.46070075757576 23.3016098484848  7.57954545454545 21.4204545454545  C 5.69839015151515 19.5392992424242  4.21543560606061 17.7267992424242  3.13068181818182 15.9829545454545  C 2.47159090909091 14.9256628787879  1.90175189393939 13.7241950757576  1.42116477272727 12.3785511363636  C 1.37997159090909 12.2549715909091  1.25639204545455 11.9185606060606  1.05042613636364 11.3693181818182  C 0.844460227272727 10.8200757575758  0.703716856060606 10.4390388257576  0.628196022727273 10.2262073863636  C 0.552675189393939 10.0133759469697  0.453125 9.69069602272727  0.329545454545455 9.25816761363636  C 0.205965909090909 8.82563920454545  0.12014678030303 8.43087121212121  0.0720880681818182 8.07386363636364  C 0.0240293560606061 7.71685606060606  0 7.35298295454545  0 6.98224431818182  C 0 5.71898674242424  0.350142045454545 4.4419981060606  1.05042613636364 3.15127840909091  C 1.81936553030303 1.76444128787878  2.54711174242424 0.926846590909091  3.23366477272727 0.638494318181817  C 3.57694128787879 0.487452651515149  4.04723011363636 0.343276515151512  4.64453125 0.205965909090909  C 5.24183238636364 0.0686553030303018  5.72585227272727 0  6.09659090909091 0  C 6.28882575757576 0  6.43300189393939 0.0205965909090915  6.52911931818182 0.0617897727272713  C 6.77627840909091 0.144176136363637  7.14015151515152 0.665956439393939  7.62073863636364 1.62713068181818  C 7.7717803030303 1.88802083333333  7.97774621212121 2.25875946969697  8.23863636363637 2.73934659090909  C 8.49952651515152 3.21993371212121  8.73982007575758 3.65589488636364  8.95951704545455 4.04723011363636  C 9.17921401515152 4.43856534090909  9.39204545454546 4.80587121212121  9.59801136363637 5.14914772727273  C 9.63920454545455 5.20407196969697  9.75935132575758 5.37571022727273  9.95845170454546 5.6640625  C 10.1575520833333 5.95241477272727  10.3051609848485 6.19614109848485  10.4012784090909 6.39524147727273  C 10.4973958333333 6.5943418560606  10.5454545454545 6.79000946969697  10.5454545454545 6.98224431818182  C 10.5454545454545 7.25686553030303  10.3497869318182 7.60014204545455  9.95845170454546 8.01207386363636  C 9.56711647727273 8.42400568181818  9.14145359848485 8.80160984848485  8.68146306818182 9.14488636363636  C 8.22147253787879 9.48816287878788  7.79580965909091 9.85203598484848  7.40447443181818 10.2365056818182  C 7.01313920454545 10.6209753787879  6.81747159090909 10.9367897727273  6.81747159090909 11.1839488636364  C 6.81747159090909 11.3075284090909  6.85179924242424 11.4620028409091  6.92045454545455 11.6473721590909  C 6.98910984848485 11.8327414772727  7.04746685606061 11.9734848484848  7.09552556818182 12.0696022727273  C 7.14358428030303 12.1657196969697  7.23970170454545 12.3304924242424  7.38387784090909 12.5639204545455  C 7.52805397727273 12.7973484848485  7.60700757575758 12.9277935606061  7.62073863636364 12.9552556818182  C 8.66429924242424 14.8364109848485  9.85890151515152 16.4498106060606  11.2045454545455 17.7954545454545  C 12.5501893939394 19.1410984848485  14.1635890151515 20.3357007575758  16.0447443181818 21.3792613636364  C 16.0722064393939 21.3929924242424  16.2026515151515 21.4719460227273  16.4360795454545 21.6161221590909  C 16.6695075757576 21.7602982954545  16.8342803030303 21.856415719697  16.9303977272727 21.9044744318182  C 17.0265151515152 21.9525331439394  17.1672585227273 22.0108901515151  17.3526278409091 22.0795454545455  C 17.5379971590909 22.1482007575758  17.6924715909091 22.1825284090909  17.8160511363636 22.1825284090909  C 18.0632102272727 22.1825284090909  18.3790246212121 21.9868607954545  18.7634943181818 21.5955255681818  C 19.1479640151515 21.2041903409091  19.5118371212121 20.7785274621212  19.8551136363636 20.3185369318182  C 20.1983901515152 19.8585464015151  20.5759943181818 19.4328835227273  20.9879261363636 19.0415482954545  C 21.3998579545455 18.6502130681818  21.743134469697 18.4545454545455  22.0177556818182 18.4545454545455  C 22.209990530303 18.4545454545455  22.4056581439394 18.5026041666667  22.6047585227273 18.5987215909091  C 22.8038589015152 18.6948390151515  23.0475852272727 18.8424479166667  23.3359375 19.0415482954545  C 23.6242897727273 19.2406486742424  23.795928030303 19.3607954545455  23.8508522727273 19.4019886363636  C 24.1941287878788 19.6079545454545  24.5614346590909 19.8207859848485  24.9527698863636 20.0404829545455  C 25.3441051136364 20.2601799242424  25.7800662878788 20.5004734848485  26.2606534090909 20.7613636363636  C 26.741240530303 21.0222537878788  27.1119791666667 21.2282196969697  27.3728693181818 21.3792613636364  C 28.3340435606061 21.8598484848485  28.8558238636364 22.2237215909091  28.9382102272727 22.4708806818182  Z " fill-rule="nonzero" fill="#3858e6" stroke="none" fill-opacity="0.658823529411765" transform="matrix(1 0 0 1 3230 403 )" />
  </g>
</svg>