<?xml version="1.0" encoding="utf-8"?>
<svg version="1.1" xmlns:xlink="http://www.w3.org/1999/xlink" width="12px" height="12px" viewBox="1261 1517  12 12" xmlns="http://www.w3.org/2000/svg">
  <path d="M 1267 1517  C 1270.36 1517  1273 1519.64  1273 1523  C 1273 1526.36  1270.36 1529  1267 1529  C 1263.64 1529  1261 1526.36  1261 1523  C 1261 1519.64  1263.64 1517  1267 1517  Z " fill-rule="nonzero" fill="#ffffff" stroke="none" />
  <path d="M 1267 1517.5  C 1270.08 1517.5  1272.5 1519.92  1272.5 1523  C 1272.5 1526.08  1270.08 1528.5  1267 1528.5  C 1263.92 1528.5  1261.5 1526.08  1261.5 1523  C 1261.5 1519.92  1263.92 1517.5  1267 1517.5  Z " stroke-width="1" stroke="#02a7f0" fill="none" />
  <path d="M 1267 1526  C 1265.32 1526  1264 1524.68  1264 1523  C 1264 1521.32  1265.32 1520  1267 1520  C 1268.68 1520  1270 1521.32  1270 1523  C 1270 1524.68  1268.68 1526  1267 1526  " fill-rule="nonzero" fill="#02a7f0" stroke="none" />
</svg>