<?xml version="1.0" encoding="utf-8"?>
<svg version="1.1" xmlns:xlink="http://www.w3.org/1999/xlink" width="66px" height="24px" xmlns="http://www.w3.org/2000/svg">
  <defs>
    <mask fill="white" id="clip24">
      <path d="M 0 3  C 0 1.34314574999999  1.38511905468752 0  3.09375 0  L 62.90625 0  C 64.61488089375 0  66 1.34314574999999  66 3  L 66 21  C 66 22.6568542  64.61488089375 24  62.90625 24  L 3.09375 24  C 1.38511905468752 24  0 22.6568542  0 21  L 0 3  Z " fill-rule="evenodd" />
    </mask>
  </defs>
  <g transform="matrix(1 0 0 1 -1205 -174 )">
    <path d="M 0 3  C 0 1.34314574999999  1.38511905468752 0  3.09375 0  L 62.90625 0  C 64.61488089375 0  66 1.34314574999999  66 3  L 66 21  C 66 22.6568542  64.61488089375 24  62.90625 24  L 3.09375 24  C 1.38511905468752 24  0 22.6568542  0 21  L 0 3  Z " fill-rule="nonzero" fill="#f59a23" stroke="none" fill-opacity="0" transform="matrix(1 0 0 1 1205 174 )" />
    <path d="M 0 3  C 0 1.34314574999999  1.38511905468752 0  3.09375 0  L 62.90625 0  C 64.61488089375 0  66 1.34314574999999  66 3  L 66 21  C 66 22.6568542  64.61488089375 24  62.90625 24  L 3.09375 24  C 1.38511905468752 24  0 22.6568542  0 21  L 0 3  Z " stroke-width="2" stroke="#d7d7d7" fill="none" transform="matrix(1 0 0 1 1205 174 )" mask="url(#clip24)" />
  </g>
</svg>