<?xml version="1.0" encoding="utf-8"?>
<svg version="1.1" xmlns:xlink="http://www.w3.org/1999/xlink" width="12px" height="2px" xmlns="http://www.w3.org/2000/svg">
  <g transform="matrix(1 0 0 1 -1318 -924 )">
    <path d="M 0 1  C 0 0.447715250000002  0.447715249999987 0  1 0  C 1.55228475000001 0  2 0.447715250000002  2 1  C 2 1.55228475  1.55228475000001 2  1 2  C 0.447715249999987 2  0 1.55228475  0 1  Z M 5 1  C 5 0.447715250000002  5.44771524999999 0  6 0  C 6.55228475000001 0  7 0.447715250000002  7 1  C 7 1.55228475  6.55228475000001 2  6 2  C 5.44771524999999 2  5 1.55228475  5 1  Z M 10 1  C 10 0.447715250000002  10.4477153 0  11 0  C 11.5522847 0  12 0.447715250000002  12 1  C 12 1.55228475  11.5522847 2  11 2  C 10.4477153 2  10 1.55228475  10 1  Z " fill-rule="nonzero" fill="#000000" stroke="none" fill-opacity="0.298039215686275" transform="matrix(1 0 0 1 1318 924 )" />
  </g>
</svg>