<?xml version="1.0" encoding="utf-8"?>
<svg version="1.1" xmlns:xlink="http://www.w3.org/1999/xlink" width="36px" height="42px" xmlns="http://www.w3.org/2000/svg">
  <g transform="matrix(1 0 0 1 -1747 -635 )">
    <path d="M 27.09375 1.59375  L 34.40625 8.90625  C 34.84375 9.34375  35.21875 9.9375  35.53125 10.6875  C 35.84375 11.4375  36 12.125  36 12.75  L 36 39.75  C 36 40.375  35.78125 40.90625  35.34375 41.34375  C 34.90625 41.78125  34.375 42  33.75 42  L 2.25 42  C 1.625 42  1.09375 41.78125  0.65625 41.34375  C 0.21875 40.90625  0 40.375  0 39.75  L 0 2.25  C 0 1.625  0.21875 1.09375  0.65625 0.65625  C 1.09375 0.218750000000002  1.625 0  2.25 0  L 23.25 0  C 23.875 0  24.5625 0.156250000000002  25.3125 0.468750000000001  C 26.0625 0.78125  26.65625 1.15625  27.09375 1.59375  Z M 24.9609375 3.703125  C 24.7734375 3.515625  24.453125 3.34375  24 3.1875  L 24 12  L 32.8125 12  C 32.65625 11.546875  32.484375 11.2265625  32.296875 11.0390625  L 24.9609375 3.703125  Z M 3 39  L 33 39  L 33 15  L 23.25 15  C 22.625 15  22.09375 14.78125  21.65625 14.34375  C 21.21875 13.90625  21 13.375  21 12.75  L 21 3  L 3 3  L 3 39  Z " fill-rule="nonzero" fill="#3858e6" stroke="none" transform="matrix(1 0 0 1 1747 635 )" />
  </g>
</svg>