<?xml version="1.0" encoding="utf-8"?>
<svg version="1.1" xmlns:xlink="http://www.w3.org/1999/xlink" width="36px" height="42px" xmlns="http://www.w3.org/2000/svg">
  <g transform="matrix(1 0 0 1 -1747 -334 )">
    <path d="M 27.09375 1.59375  L 34.40625 8.90625  C 34.84375 9.34375  35.21875 9.9375  35.53125 10.6875  C 35.84375 11.4375  36 12.125  36 12.75  L 36 39.75  C 36 40.375  35.78125 40.90625  35.34375 41.34375  C 34.90625 41.78125  34.375 42  33.75 42  L 2.25 42  C 1.625 42  1.09375 41.78125  0.65625 41.34375  C 0.21875 40.90625  0 40.375  0 39.75  L 0 2.25  C 0 1.625  0.21875 1.09375  0.65625 0.65625  C 1.09375 0.218750000000002  1.625 0  2.25 0  L 23.25 0  C 23.875 0  24.5625 0.156250000000002  25.3125 0.468750000000001  C 26.0625 0.78125  26.65625 1.15625  27.09375 1.59375  Z M 24.9609375 3.703125  C 24.7734375 3.515625  24.453125 3.34375  24 3.1875  L 24 12  L 32.8125 12  C 32.65625 11.546875  32.484375 11.2265625  32.296875 11.0390625  L 24.9609375 3.703125  Z M 3 39  L 33 39  L 33 15  L 23.25 15  C 22.625 15  22.09375 14.78125  21.65625 14.34375  C 21.21875 13.90625  21 13.375  21 12.75  L 21 3  L 3 3  L 3 39  Z M 17.53125 19.5234375  C 18.390625 22.0859375  19.53125 23.9453125  20.953125 25.1015625  C 21.46875 25.5078125  22.125 25.9453125  22.921875 26.4140625  C 23.84375 26.3046875  24.7578125 26.25  25.6640625 26.25  C 27.9609375 26.25  29.34375 26.6328125  29.8125 27.3984375  C 30.0625 27.7421875  30.078125 28.1484375  29.859375 28.6171875  C 29.859375 28.6328125  29.8515625 28.6484375  29.8359375 28.6640625  L 29.7890625 28.7109375  L 29.7890625 28.734375  C 29.6953125 29.328125  29.140625 29.625  28.125 29.625  C 27.375 29.625  26.4765625 29.46875  25.4296875 29.15625  C 24.3828125 28.84375  23.3671875 28.4296875  22.3828125 27.9140625  C 18.9296875 28.2890625  15.8671875 28.9375  13.1953125 29.859375  C 10.8046875 33.953125  8.9140625 36  7.5234375 36  C 7.2890625 36  7.0703125 35.9453125  6.8671875 35.8359375  L 6.3046875 35.5546875  C 6.2890625 35.5390625  6.2421875 35.5  6.1640625 35.4375  C 6.0078125 35.28125  5.9609375 35  6.0234375 34.59375  C 6.1640625 33.96875  6.6015625 33.25390625  7.3359375 32.44921875  C 8.0703125 31.64453125  9.1015625 30.890625  10.4296875 30.1875  C 10.6484375 30.046875  10.828125 30.09375  10.96875 30.328125  C 11 30.359375  11.015625 30.390625  11.015625 30.421875  C 11.828125 29.09375  12.6640625 27.5546875  13.5234375 25.8046875  C 14.5859375 23.6796875  15.3984375 21.6328125  15.9609375 19.6640625  C 15.5859375 18.3828125  15.34765625 17.13671875  15.24609375 15.92578125  C 15.14453125 14.71484375  15.1953125 13.71875  15.3984375 12.9375  C 15.5703125 12.3125  15.8984375 12  16.3828125 12  L 16.875 12  L 16.8984375 12  C 17.2578125 12  17.53125 12.1171875  17.71875 12.3515625  C 18 12.6796875  18.0703125 13.2109375  17.9296875 13.9453125  C 17.8984375 14.0390625  17.8671875 14.1015625  17.8359375 14.1328125  C 17.8515625 14.1796875  17.859375 14.2421875  17.859375 14.3203125  L 17.859375 15.0234375  C 17.828125 16.9453125  17.71875 18.4453125  17.53125 19.5234375  Z M 8.61328125 33  C 8.04296875 33.6875  7.65625 34.265625  7.453125 34.734375  C 8.265625 34.359375  9.3359375 33.125  10.6640625 31.03125  C 9.8671875 31.65625  9.18359375 32.3125  8.61328125 33  Z M 16.78125 13.125  L 16.78125 13.171875  C 16.546875 13.828125  16.53125 14.859375  16.734375 16.265625  C 16.75 16.15625  16.8046875 15.8125  16.8984375 15.234375  C 16.8984375 15.1875  16.953125 14.8515625  17.0625 14.2265625  C 17.078125 14.1640625  17.109375 14.1015625  17.15625 14.0390625  C 17.140625 14.0234375  17.1328125 14.0078125  17.1328125 13.9921875  C 17.1171875 13.9609375  17.109375 13.9375  17.109375 13.921875  C 17.09375 13.578125  16.9921875 13.296875  16.8046875 13.078125  C 16.8046875 13.09375  16.796875 13.109375  16.78125 13.125  Z M 14.9296875 26.71875  C 14.4609375 27.59375  14.109375 28.2421875  13.875 28.6640625  C 15.984375 27.8203125  18.203125 27.1875  20.53125 26.765625  C 20.5 26.75  20.3984375 26.67578125  20.2265625 26.54296875  C 20.0546875 26.41015625  19.9296875 26.3046875  19.8515625 26.2265625  C 18.6640625 25.1796875  17.671875 23.8046875  16.875 22.1015625  C 16.453125 23.4453125  15.8046875 24.984375  14.9296875 26.71875  Z M 29.0625 28.359375  C 29.0625 28.34375  29.046875 28.3203125  29.015625 28.2890625  C 28.640625 27.9140625  27.546875 27.7265625  25.734375 27.7265625  C 26.921875 28.1640625  27.890625 28.3828125  28.640625 28.3828125  C 28.859375 28.3828125  29 28.375  29.0625 28.359375  Z " fill-rule="nonzero" fill="#3858e6" stroke="none" transform="matrix(1 0 0 1 1747 334 )" />
  </g>
</svg>