<?xml version="1.0" encoding="utf-8"?>
<svg version="1.1" xmlns:xlink="http://www.w3.org/1999/xlink" width="36px" height="42px" xmlns="http://www.w3.org/2000/svg">
  <g transform="matrix(1 0 0 1 -1747 -480 )">
    <path d="M 27.09375 1.59375  L 34.40625 8.90625  C 34.84375 9.34375  35.21875 9.9375  35.53125 10.6875  C 35.84375 11.4375  36 12.125  36 12.75  L 36 39.75  C 36 40.375  35.78125 40.90625  35.34375 41.34375  C 34.90625 41.78125  34.375 42  33.75 42  L 2.25 42  C 1.625 42  1.09375 41.78125  0.65625 41.34375  C 0.21875 40.90625  0 40.375  0 39.75  L 0 2.25  C 0 1.625  0.21875 1.09375  0.65625 0.65625  C 1.09375 0.218750000000002  1.625 0  2.25 0  L 23.25 0  C 23.875 0  24.5625 0.156250000000002  25.3125 0.468750000000001  C 26.0625 0.78125  26.65625 1.15625  27.09375 1.59375  Z M 24.9609375 3.703125  C 24.7734375 3.515625  24.453125 3.34375  24 3.1875  L 24 12  L 32.8125 12  C 32.65625 11.546875  32.484375 11.2265625  32.296875 11.0390625  L 24.9609375 3.703125  Z M 3 39  L 33 39  L 33 15  L 23.25 15  C 22.625 15  22.09375 14.78125  21.65625 14.34375  C 21.21875 13.90625  21 13.375  21 12.75  L 21 3  L 3 3  L 3 39  Z M 12.4921875 18  L 5.4609375 18  L 5.4609375 20.5078125  L 7.1015625 20.5078125  L 10.9453125 36  L 14.671875 36  L 17.671875 24.6328125  C 17.78125 24.3203125  17.859375 23.9609375  17.90625 23.5546875  C 17.9375 23.3046875  17.953125 23.1171875  17.953125 22.9921875  L 18.046875 22.9921875  L 18.1171875 23.5546875  C 18.1328125 23.6015625  18.16015625 23.7578125  18.19921875 24.0234375  C 18.23828125 24.2890625  18.28125 24.4921875  18.328125 24.6328125  L 21.328125 36  L 25.0546875 36  L 28.8984375 20.5078125  L 30.5390625 20.5078125  L 30.5390625 18  L 23.5078125 18  L 23.5078125 20.5078125  L 25.6171875 20.5078125  L 23.296875 30.7734375  C 23.21875 31.0859375  23.1640625 31.4453125  23.1328125 31.8515625  L 23.0859375 32.34375  L 22.9921875 32.34375  C 22.9921875 32.296875  22.98828125 32.24609375  22.98046875 32.19140625  C 22.97265625 32.13671875  22.9609375 32.07421875  22.9453125 32.00390625  C 22.9296875 31.93359375  22.921875 31.8828125  22.921875 31.8515625  C 22.90625 31.7734375  22.875 31.609375  22.828125 31.359375  C 22.78125 31.109375  22.7421875 30.9140625  22.7109375 30.7734375  L 19.3359375 18  L 16.6640625 18  L 13.2890625 30.7734375  C 13.2578125 30.9140625  13.22265625 31.10546875  13.18359375 31.34765625  C 13.14453125 31.58984375  13.1171875 31.7578125  13.1015625 31.8515625  L 13.0078125 32.34375  L 12.9140625 32.34375  L 12.8671875 31.8515625  C 12.8359375 31.4453125  12.78125 31.0859375  12.703125 30.7734375  L 10.3828125 20.5078125  L 12.4921875 20.5078125  L 12.4921875 18  Z " fill-rule="nonzero" fill="#3858e6" stroke="none" transform="matrix(1 0 0 1 1747 480 )" />
  </g>
</svg>