<?xml version="1.0" encoding="utf-8"?>
<svg version="1.1" xmlns:xlink="http://www.w3.org/1999/xlink" width="109px" height="109px" xmlns="http://www.w3.org/2000/svg">
  <g transform="matrix(1 0 0 1 -678 -2710 )">
    <path d="M 81.75 50.5970052083333  C 83.2638888888889 51.4485677083333  84.0208333333333 52.7495659722222  84.0208333333333 54.5  C 84.0208333333333 56.2504340277778  83.2638888888889 57.5514322916667  81.75 58.4029947916667  L 43.1458333333333 81.111328125  C 42.4361979166667 81.537109375  41.6792534722222 81.75  40.875 81.75  C 40.1180555555556 81.75  39.3611111111111 81.5607638888889  38.6041666666667 81.1822916666667  C 37.0902777777778 80.2834201388889  36.3333333333333 78.9587673611111  37 77.2083333333333  L 37 31.7916666666667  C 36.3333333333333 30.0412326388889  37.0902777777778 28.7165798611111  38.6041666666667 27.8177083333333  C 40.1653645833333 26.9661458333333  41.6792534722222 26.9898003472222  43.1458333333333 27.888671875  L 81.75 50.5970052083333  Z M 87.923828125 73.873046875  C 91.3773871527778 67.9594184027778  93.1041666666667 61.5017361111111  93.1041666666667 54.5  C 93.1041666666667 47.4982638888889  91.3773871527778 41.0405815972222  87.923828125 35.126953125  C 84.4702690972222 29.2133246527778  79.7866753472222 24.5297309027778  73.873046875 21.076171875  C 67.9594184027778 17.6226128472222  61.5017361111111 15.8958333333333  54.5 15.8958333333333  C 47.4982638888889 15.8958333333333  41.0405815972222 17.6226128472222  35.126953125 21.076171875  C 29.2133246527778 24.5297309027778  24.5297309027778 29.2133246527778  21.076171875 35.126953125  C 17.6226128472222 41.0405815972222  15.8958333333333 47.4982638888889  15.8958333333333 54.5  C 15.8958333333333 61.5017361111111  17.6226128472222 67.9594184027778  21.076171875 73.873046875  C 24.5297309027778 79.7866753472222  29.2133246527778 84.4702690972222  35.126953125 87.923828125  C 41.0405815972222 91.3773871527778  47.4982638888889 93.1041666666667  54.5 93.1041666666667  C 61.5017361111111 93.1041666666667  67.9594184027778 91.3773871527778  73.873046875 87.923828125  C 79.7866753472222 84.4702690972222  84.4702690972222 79.7866753472222  87.923828125 73.873046875  Z M 101.690755208333 27.1435546875  C 106.563585069444 35.4935980902778  109 44.6124131944444  109 54.5  C 109 64.3875868055556  106.563585069444 73.5064019097222  101.690755208333 81.8564453125  C 96.8179253472222 90.2064887152778  90.2064887152778 96.8179253472222  81.8564453125 101.690755208333  C 73.5064019097222 106.563585069444  64.3875868055556 109  54.5 109  C 44.6124131944445 109  35.4935980902778 106.563585069444  27.1435546875 101.690755208333  C 18.7935112847222 96.8179253472222  12.1820746527778 90.2064887152778  7.30924479166667 81.8564453125  C 2.43641493055556 73.5064019097222  0 64.3875868055556  0 54.5  C 0 44.6124131944444  2.43641493055556 35.4935980902778  7.30924479166667 27.1435546875  C 12.1820746527778 18.7935112847222  18.7935112847222 12.1820746527778  27.1435546875 7.30924479166666  C 35.4935980902778 2.43641493055555  44.6124131944445 0  54.5 0  C 64.3875868055556 0  73.5064019097222 2.43641493055555  81.8564453125 7.30924479166666  C 90.2064887152778 12.1820746527778  96.8179253472222 18.7935112847222  101.690755208333 27.1435546875  Z " fill-rule="nonzero" fill="#ffffff" stroke="none" transform="matrix(1 0 0 1 678 2710 )" />
  </g>
</svg>