<?xml version="1.0" encoding="utf-8"?>
<svg version="1.1" xmlns:xlink="http://www.w3.org/1999/xlink" width="23px" height="21px" xmlns="http://www.w3.org/2000/svg">
  <g transform="matrix(1 0 0 1 -1360 -336 )">
    <path d="M 5.30769230769231 15.75  L 5.30769230769231 19  L 17.6923076923077 19  L 17.6923076923077 15.75  L 5.30769230769231 15.75  Z M 5.30769230769231 1.75  L 5.30769230769231 10.5  L 17.6923076923077 10.5  L 17.6923076923077 5.25  L 15.4807692307692 5.25  C 15.1121794871795 5.25  14.7988782051282 5.12239583333333  14.5408653846154 4.8671875  C 14.2828525641026 4.61197916666667  14.1538461538462 4.30208333333333  14.1538461538462 3.9375  L 14.1538461538462 1.75  L 5.30769230769231 1.75  Z M 20.9681490384615 11.990234375  C 21.1432291666667 11.8170572916667  21.2307692307692 11.6119791666667  21.2307692307692 11.375  C 21.2307692307692 11.1380208333333  21.1432291666667 10.9329427083333  20.9681490384615 10.759765625  C 20.7930689102564 10.5865885416667  20.5857371794872 10.5  20.3461538461538 10.5  C 20.1065705128205 10.5  19.8992387820513 10.5865885416667  19.7241586538462 10.759765625  C 19.549078525641 10.9329427083333  19.4615384615385 11.1380208333333  19.4615384615385 11.375  C 19.4615384615385 11.6119791666667  19.549078525641 11.8170572916667  19.7241586538462 11.990234375  C 19.8992387820513 12.1634114583333  20.1065705128205 12.25  20.3461538461538 12.25  C 20.5857371794872 12.25  20.7930689102564 12.1634114583333  20.9681490384615 11.990234375  Z M 22.2190504807692 9.5224609375  C 22.7396834935897 10.0374348958333  23 10.6549479166667  23 11.375  L 23 17.0625  C 23 17.1809895833333  22.9562299679487 17.2835286458333  22.8686899038462 17.3701171875  C 22.7811498397436 17.4567057291667  22.677483974359 17.5  22.5576923076923 17.5  L 19.4615384615385 17.5  L 19.4615384615385 19.6875  C 19.4615384615385 20.0520833333333  19.3325320512821 20.3619791666667  19.0745192307692 20.6171875  C 18.8165064102564 20.8723958333333  18.5032051282051 21  18.1346153846154 21  L 4.86538461538462 21  C 4.49679487179487 21  4.18349358974359 20.8723958333333  3.92548076923077 20.6171875  C 3.66746794871795 20.3619791666667  3.53846153846154 20.0520833333333  3.53846153846154 19.6875  L 3.53846153846154 17.5  L 0.442307692307692 17.5  C 0.322516025641026 17.5  0.21885016025641 17.4567057291667  0.131310096153846 17.3701171875  C 0.043770032051282 17.2835286458333  0 17.1809895833333  0 17.0625  L 0 11.375  C 0 10.6549479166667  0.260316506410256 10.0374348958333  0.780949519230769 9.5224609375  C 1.30158253205128 9.00748697916667  1.92588141025641 8.75  2.65384615384615 8.75  L 3.53846153846154 8.75  L 3.53846153846154 1.3125  C 3.53846153846154 0.947916666666666  3.66746794871795 0.63802083333333  3.92548076923077 0.382812499999999  C 4.18349358974359 0.127604166666666  4.49679487179487 0  4.86538461538462 0  L 14.1538461538462 0  C 14.5224358974359 0  14.9278846153846 0.0911458333333313  15.3701923076923 0.273437500000001  C 15.8125 0.455729166666666  16.1626602564103 0.674479166666665  16.4206730769231 0.929687500000001  L 18.5216346153846 3.0078125  C 18.7796474358974 3.26302083333333  19.0008012820513 3.609375  19.1850961538462 4.046875  C 19.369391025641 4.484375  19.4615384615385 4.88541666666667  19.4615384615385 5.25  L 19.4615384615385 8.75  L 20.3461538461538 8.75  C 21.0741185897436 8.75  21.6984174679487 9.00748697916667  22.2190504807692 9.5224609375  Z " fill-rule="nonzero" fill="#ffffff" stroke="none" transform="matrix(1 0 0 1 1360 336 )" />
  </g>
</svg>