<?xml version="1.0" encoding="utf-8"?>
<svg version="1.1" xmlns:xlink="http://www.w3.org/1999/xlink" width="198px" height="42px" xmlns="http://www.w3.org/2000/svg">
  <g transform="matrix(1 0 0 1 -787 -503 )">
    <path d="M 968.474093587536 503.5  C 968.474093587536 503.5  971.939369704753 503.867529285159  971.939369704753 503.867529285159  C 971.939369704753 503.867529285159  984.463604800407 524  984.463604800407 524  C 984.463604800407 524  971.939369704753 544.132470714841  971.939369704753 544.132470714841  C 971.939369704753 544.132470714841  968.474093587536 544.5  968.474093587536 544.5  C 968.474093587536 544.5  787.5 544.5  787.5 544.5  C 787.5 544.5  787.5 503.5  787.5 503.5  C 787.5 503.5  968.474093587536 503.5  968.474093587536 503.5  Z " fill-rule="nonzero" fill="#ffffff" stroke="none" />
    <path d="M 968.474093587536 503.5  C 968.474093587536 503.5  971.939369704753 503.867529285159  971.939369704753 503.867529285159  C 971.939369704753 503.867529285159  984.463604800407 524  984.463604800407 524  C 984.463604800407 524  971.939369704753 544.132470714841  971.939369704753 544.132470714841  C 971.939369704753 544.132470714841  968.474093587536 544.5  968.474093587536 544.5  C 968.474093587536 544.5  787.5 544.5  787.5 544.5  C 787.5 544.5  787.5 503.5  787.5 503.5  C 787.5 503.5  968.474093587536 503.5  968.474093587536 503.5  Z " stroke-width="1" stroke="#aaaaaa" fill="none" />
  </g>
</svg>