<?xml version="1.0" encoding="utf-8"?>
<svg version="1.1" xmlns:xlink="http://www.w3.org/1999/xlink" width="189px" height="42px" xmlns="http://www.w3.org/2000/svg">
  <g transform="matrix(1 0 0 1 -626 -503 )">
    <path d="M 798.45147084275 503.5  C 798.45147084275 503.5  801.93785664962 503.887376200763  801.93785664962 503.887376200763  C 801.93785664962 503.887376200763  814.462041847847 524  814.462041847847 524  C 814.462041847847 524  801.93785664962 544.112623799237  801.93785664962 544.112623799237  C 801.93785664962 544.112623799237  798.45147084275 544.5  798.45147084275 544.5  C 798.45147084275 544.5  626.5 544.5  626.5 544.5  C 626.5 544.5  626.5 503.5  626.5 503.5  C 626.5 503.5  798.45147084275 503.5  798.45147084275 503.5  Z " fill-rule="nonzero" fill="#ffffff" stroke="none" />
    <path d="M 798.45147084275 503.5  C 798.45147084275 503.5  801.93785664962 503.887376200763  801.93785664962 503.887376200763  C 801.93785664962 503.887376200763  814.462041847847 524  814.462041847847 524  C 814.462041847847 524  801.93785664962 544.112623799237  801.93785664962 544.112623799237  C 801.93785664962 544.112623799237  798.45147084275 544.5  798.45147084275 544.5  C 798.45147084275 544.5  626.5 544.5  626.5 544.5  C 626.5 544.5  626.5 503.5  626.5 503.5  C 626.5 503.5  798.45147084275 503.5  798.45147084275 503.5  Z " stroke-width="1" stroke="#aaaaaa" fill="none" />
  </g>
</svg>