<?xml version="1.0" encoding="utf-8"?>
<svg version="1.1" xmlns:xlink="http://www.w3.org/1999/xlink" width="182px" height="42px" xmlns="http://www.w3.org/2000/svg">
  <g transform="matrix(1 0 0 1 -142 -503 )">
    <path d="M 307.433875374584 503.5  C 307.433875374584 503.5  310.936582862101 503.904158556252  310.936582862101 503.904158556252  C 310.936582862101 503.904158556252  323.460732735658 524  323.460732735658 524  C 323.460732735658 524  310.936582862101 544.095841443748  310.936582862101 544.095841443748  C 310.936582862101 544.095841443748  307.433875374584 544.5  307.433875374584 544.5  C 307.433875374584 544.5  142.5 544.5  142.5 544.5  C 142.5 544.5  142.5 503.5  142.5 503.5  C 142.5 503.5  307.433875374584 503.5  307.433875374584 503.5  Z " fill-rule="nonzero" fill="#ffffff" stroke="none" />
    <path d="M 307.433875374584 503.5  C 307.433875374584 503.5  310.936582862101 503.904158556252  310.936582862101 503.904158556252  C 310.936582862101 503.904158556252  323.460732735658 524  323.460732735658 524  C 323.460732735658 524  310.936582862101 544.095841443748  310.936582862101 544.095841443748  C 310.936582862101 544.095841443748  307.433875374584 544.5  307.433875374584 544.5  C 307.433875374584 544.5  142.5 544.5  142.5 544.5  C 142.5 544.5  142.5 503.5  142.5 503.5  C 142.5 503.5  307.433875374584 503.5  307.433875374584 503.5  Z " stroke-width="1" stroke="#aaaaaa" fill="none" />
  </g>
</svg>