<?xml version="1.0" encoding="utf-8"?>
<svg version="1.1" xmlns:xlink="http://www.w3.org/1999/xlink" width="169px" height="42px" xmlns="http://www.w3.org/2000/svg">
  <g transform="matrix(1 0 0 1 0 -503 )">
    <path d="M 152.40119807656 503.5  C 152.40119807656 503.5  155.933957012729 503.938981879642  155.933957012729 503.938981879642  C 155.933957012729 503.938981879642  168.458053520076 524  168.458053520076 524  C 168.458053520076 524  155.933957012729 544.061018120358  155.933957012729 544.061018120358  C 155.933957012729 544.061018120358  152.40119807656 544.5  152.40119807656 544.5  C 152.40119807656 544.5  0.500000000000003 544.5  0.500000000000003 544.5  C 0.500000000000003 544.5  0.5 503.5  0.5 503.5  C 0.5 503.5  152.40119807656 503.5  152.40119807656 503.5  Z " fill-rule="nonzero" fill="#3858e6" stroke="none" fill-opacity="0.658823529411765" />
    <path d="M 152.40119807656 503.5  C 152.40119807656 503.5  155.933957012729 503.938981879642  155.933957012729 503.938981879642  C 155.933957012729 503.938981879642  168.458053520076 524  168.458053520076 524  C 168.458053520076 524  155.933957012729 544.061018120358  155.933957012729 544.061018120358  C 155.933957012729 544.061018120358  152.40119807656 544.5  152.40119807656 544.5  C 152.40119807656 544.5  0.500000000000003 544.5  0.500000000000003 544.5  C 0.500000000000003 544.5  0.5 503.5  0.5 503.5  C 0.5 503.5  152.40119807656 503.5  152.40119807656 503.5  Z " stroke-width="1" stroke="#aaaaaa" fill="none" />
  </g>
</svg>