<?xml version="1.0" encoding="utf-8"?>
<svg version="1.1" xmlns:xlink="http://www.w3.org/1999/xlink" width="21px" height="19px" xmlns="http://www.w3.org/2000/svg">
  <g transform="matrix(1 0 0 1 -1322 -336 )">
    <path d="M 15.9140625 17.181640625  C 16.0739182692308 17.0249565972222  16.1538461538462 16.8394097222222  16.1538461538462 16.625  C 16.1538461538462 16.4105902777778  16.0739182692308 16.2250434027778  15.9140625 16.068359375  C 15.7542067307692 15.9116753472222  15.5649038461538 15.8333333333333  15.3461538461538 15.8333333333333  C 15.1274038461538 15.8333333333333  14.9381009615385 15.9116753472222  14.7782451923077 16.068359375  C 14.6183894230769 16.2250434027778  14.5384615384615 16.4105902777778  14.5384615384615 16.625  C 14.5384615384615 16.8394097222222  14.6183894230769 17.0249565972222  14.7782451923077 17.181640625  C 14.9381009615385 17.3383246527778  15.1274038461538 17.4166666666667  15.3461538461538 17.4166666666667  C 15.5649038461538 17.4166666666667  15.7542067307692 17.3383246527778  15.9140625 17.181640625  Z M 19.1448317307692 17.181640625  C 19.3046875 17.0249565972222  19.3846153846154 16.8394097222222  19.3846153846154 16.625  C 19.3846153846154 16.4105902777778  19.3046875 16.2250434027778  19.1448317307692 16.068359375  C 18.9849759615385 15.9116753472222  18.7956730769231 15.8333333333333  18.5769230769231 15.8333333333333  C 18.3581730769231 15.8333333333333  18.1688701923077 15.9116753472222  18.0090144230769 16.068359375  C 17.8491586538462 16.2250434027778  17.7692307692308 16.4105902777778  17.7692307692308 16.625  C 17.7692307692308 16.8394097222222  17.8491586538462 17.0249565972222  18.0090144230769 17.181640625  C 18.1688701923077 17.3383246527778  18.3581730769231 17.4166666666667  18.5769230769231 17.4166666666667  C 18.7956730769231 17.4166666666667  18.9849759615385 17.3383246527778  19.1448317307692 17.181640625  Z M 20.6466346153846 13.0130208333333  C 20.8822115384615 13.2439236111111  21 13.5243055555556  21 13.8541666666667  L 21 17.8125  C 21 18.1423611111111  20.8822115384615 18.4227430555556  20.6466346153846 18.6536458333333  C 20.4110576923077 18.8845486111111  20.125 19  19.7884615384615 19  L 1.21153846153846 19  C 0.875 19  0.588942307692308 18.8845486111111  0.353365384615385 18.6536458333333  C 0.117788461538462 18.4227430555556  0 18.1423611111111  0 17.8125  L 0 13.8541666666667  C 0 13.5243055555556  0.117788461538462 13.2439236111111  0.353365384615385 13.0130208333333  C 0.588942307692308 12.7821180555556  0.875 12.6666666666667  1.21153846153846 12.6666666666667  L 7.07992788461538 12.6666666666667  L 8.78365384615385 14.3489583333333  C 9.27163461538462 14.8107638888889  9.84375 15.0416666666667  10.5 15.0416666666667  C 11.15625 15.0416666666667  11.7283653846154 14.8107638888889  12.2163461538462 14.3489583333333  L 13.9326923076923 12.6666666666667  L 19.7884615384615 12.6666666666667  C 20.125 12.6666666666667  20.4110576923077 12.7821180555556  20.6466346153846 13.0130208333333  Z M 16.1538461538462 6.33333333333333  C 16.5072115384615 6.33333333333333  16.7554086538462 6.494140625  16.8984375 6.81575520833333  C 17.0414663461539 7.15386284722222  16.9825721153846 7.44249131944444  16.7217548076923 7.681640625  L 11.0679086538462 13.2233072916667  C 10.9164663461538 13.3799913194444  10.7271634615385 13.4583333333333  10.5 13.4583333333333  C 10.2728365384615 13.4583333333333  10.0835336538462 13.3799913194444  9.93209134615385 13.2233072916667  L 4.27824519230769 7.681640625  C 4.01742788461539 7.44249131944444  3.95853365384615 7.15386284722222  4.1015625 6.81575520833333  C 4.24459134615385 6.494140625  4.49278846153846 6.33333333333333  4.84615384615385 6.33333333333333  L 8.07692307692308 6.33333333333333  L 8.07692307692308 0.791666666666666  C 8.07692307692308 0.577256944444442  8.15685096153846 0.391710069444442  8.31670673076923 0.235026041666666  C 8.4765625 0.0783420138888901  8.66586538461539 0  8.88461538461539 0  L 12.1153846153846 0  C 12.3341346153846 0  12.5234375 0.0783420138888901  12.6832932692308 0.235026041666666  C 12.8431490384615 0.391710069444442  12.9230769230769 0.577256944444442  12.9230769230769 0.791666666666666  L 12.9230769230769 6.33333333333333  L 16.1538461538462 6.33333333333333  Z " fill-rule="nonzero" fill="#ffffff" stroke="none" transform="matrix(1 0 0 1 1322 336 )" />
  </g>
</svg>